<?xml version="1.0" encoding="UTF-8"?>
<svg version="1.1" xmlns="http://www.w3.org/2000/svg" width="350" height="350">
<path d="M0 0 C1.318862 0.00456207 1.318862 0.00456207 2.66436768 0.00921631 C15.89917694 0.0768897 28.53396265 0.71185406 41.3125 4.4375 C42.06466797 4.64648926 42.81683594 4.85547852 43.59179688 5.07080078 C71.2031131 12.9002628 93.63459269 27.91173415 114.3125 47.4375 C115.47652344 48.52804688 115.47652344 48.52804688 116.6640625 49.640625 C118.3125 51.4375 118.3125 51.4375 118.3125 53.4375 C118.9725 53.4375 119.6325 53.4375 120.3125 53.4375 C121.92805088 55.27599079 123.40838648 57.10942308 124.875 59.0625 C125.31900146 59.6507959 125.76300293 60.2390918 126.22045898 60.84521484 C142.37256439 82.51344372 152.23018449 105.90373235 157.3125 132.4375 C157.4882959 133.33476807 157.6640918 134.23203613 157.84521484 135.15649414 C158.40473634 139.0851302 158.53054075 142.96917082 158.5859375 146.9296875 C158.59832962 147.74477783 158.61072174 148.55986816 158.62348938 149.3996582 C158.65582801 152.0373139 158.67468751 154.67467908 158.6875 157.3125 C158.69206207 158.20922424 158.69662415 159.10594849 158.70132446 160.02984619 C158.72811449 174.72425915 157.48749886 188.27039412 153.3125 202.4375 C153.03615723 203.37625977 152.75981445 204.31501953 152.47509766 205.28222656 C151.76368361 207.67033604 151.04318597 210.05522875 150.3125 212.4375 C151.3025 212.1075 152.2925 211.7775 153.3125 211.4375 C153.9725 212.0975 154.6325 212.7575 155.3125 213.4375 C152.31770833 218.67838542 149.32291667 223.91927083 146.328125 229.16015625 C145.55952148 230.52164795 145.55952148 230.52164795 144.77539062 231.91064453 C143.87506001 233.46578837 142.94245598 235.00337901 141.95898438 236.50732422 C139.68448307 239.96553286 139.68448307 239.96553286 139.828125 243.9609375 C140.31796875 244.77820313 140.8078125 245.59546875 141.3125 246.4375 C141.88484375 247.48164063 142.4571875 248.52578125 143.046875 249.6015625 C143.71581458 250.75691291 144.38781395 251.91049589 145.0625 253.0625 C145.77692765 254.29636243 146.49045787 255.53074488 147.203125 256.765625 C147.55697266 257.37857422 147.91082031 257.99152344 148.27539062 258.62304688 C150.69382257 262.85416415 153.00104579 267.1473009 155.3125 271.4375 C154.3125 272.4375 154.3125 272.4375 150.36621094 272.46826172 C148.59308387 272.435374 146.81997285 272.4016145 145.046875 272.3671875 C143.10418164 272.35626977 141.16146807 272.34856672 139.21875 272.34375 C136.15628691 272.33594755 133.0986422 272.31342164 130.03710938 272.23535156 C115.27735842 271.71080033 115.27735842 271.71080033 102.8359375 278.69140625 C100.93547103 280.55954549 99.12914444 282.48520159 97.3125 284.4375 C81.22831603 297.40132213 61.96003732 305.68887075 42.3125 311.4375 C41.18070313 311.77523438 40.04890625 312.11296875 38.8828125 312.4609375 C2.69255263 322.36667259 -37.31534888 316.69410464 -70.6875 300.4375 C-71.80511719 299.89351563 -72.92273438 299.34953125 -74.07421875 298.7890625 C-82.53719787 294.44017335 -90.05364444 289.06515363 -97.6875 283.4375 C-98.6775 282.7775 -99.6675 282.1175 -100.6875 281.4375 C-100.6875 280.7775 -100.6875 280.1175 -100.6875 279.4375 C-101.244375 279.19 -101.80125 278.9425 -102.375 278.6875 C-104.6875 277.4375 -104.6875 277.4375 -106.69995117 275.39746094 C-111.00551901 272.57282266 -114.75286003 272.83474661 -119.80078125 272.828125 C-120.77033249 272.81158875 -121.73988373 272.79505249 -122.73881531 272.77801514 C-125.82594143 272.72955255 -128.91257499 272.70816775 -132 272.6875 C-134.09702997 272.65933891 -136.194037 272.62941129 -138.29101562 272.59765625 C-143.42313654 272.52379378 -148.55498429 272.47420829 -153.6875 272.4375 C-153.6875 268.2414444 -151.61246429 265.40762235 -149.5625 261.875 C-149.15596191 261.15989258 -148.74942383 260.44478516 -148.33056641 259.70800781 C-145.56159594 254.86094305 -142.66423198 250.1112849 -139.5859375 245.453125 C-138.42702417 242.85312814 -138.77404682 242.11798955 -139.6875 239.4375 C-140.76443245 237.39635579 -141.89837226 235.38494573 -143.06640625 233.39453125 C-143.39793198 232.82546555 -143.7294577 232.25639984 -144.07102966 231.67008972 C-145.12604726 229.86063382 -146.18760538 228.05513282 -147.25 226.25 C-148.3149805 224.43360725 -149.37853813 222.61641214 -150.43968201 220.79777527 C-151.39890016 219.15483529 -152.36255656 217.51448897 -153.32641602 215.87426758 C-154.6875 213.4375 -154.6875 213.4375 -154.6875 212.4375 C-152.7075 212.4375 -150.7275 212.4375 -148.6875 212.4375 C-148.92984375 211.85226563 -149.1721875 211.26703125 -149.421875 210.6640625 C-151.77268339 204.64237639 -153.47157231 198.60963041 -154.875 192.3125 C-155.04161133 191.57338379 -155.20822266 190.83426758 -155.37988281 190.07275391 C-157.50524096 180.21624185 -157.87393643 170.5370464 -157.87280273 160.48339844 C-157.87497451 158.33768413 -157.89314554 156.19249786 -157.91210938 154.046875 C-157.96663072 141.14052321 -156.76150636 128.61701056 -153.0625 116.1875 C-152.80452637 115.30763428 -152.54655273 114.42776855 -152.28076172 113.52124023 C-139.71279951 72.0914533 -112.11355753 38.24123769 -73.99609375 17.640625 C-61.74829524 11.24653292 -49.15756011 6.48854158 -35.6875 3.4375 C-34.52524902 3.17163086 -33.36299805 2.90576172 -32.16552734 2.63183594 C-21.39013333 0.38500935 -10.98699584 -0.08070087 0 0 Z M-106.6875 47.4375 C-107.39777344 48.08460937 -108.10804687 48.73171875 -108.83984375 49.3984375 C-124.69376812 64.3636247 -135.77020526 83.30425664 -143.6875 103.4375 C-144.06648438 104.39269531 -144.44546875 105.34789062 -144.8359375 106.33203125 C-155.689475 134.85316926 -155.84298834 165.76462276 -149.25 195.25 C-149.04479736 196.17482178 -148.83959473 197.09964355 -148.62817383 198.05249023 C-146.93794762 205.85630464 -146.93794762 205.85630464 -142.6875 212.4375 C-141.31666279 212.53655163 -139.94081587 212.5682966 -138.56640625 212.5703125 C-137.71763916 212.57256836 -136.86887207 212.57482422 -135.99438477 212.57714844 C-135.08873779 212.57231445 -134.18309082 212.56748047 -133.25 212.5625 C-132.33726318 212.55766602 -131.42452637 212.55283203 -130.48413086 212.54785156 C-118.11379719 213.01236462 -118.11379719 213.01236462 -107.6875 207.4375 C-105.69529443 206.74789038 -103.69644394 206.07670943 -101.6875 205.4375 C-101.3575 204.7775 -101.0275 204.1175 -100.6875 203.4375 C-97.20535922 203.36785718 -94.13810556 203.32245177 -90.75 204.1875 C-86.90487087 204.50138809 -85.2694578 203.33737535 -81.98828125 201.49609375 C-77.7897167 199.56432636 -73.2345406 199.07274832 -68.6875 198.4375 C-68.6875 197.7775 -68.6875 197.1175 -68.6875 196.4375 C-67.3675 195.7775 -66.0475 195.1175 -64.6875 194.4375 C-65.8734375 193.91542969 -67.059375 193.39335937 -68.28125 192.85546875 C-78.16086361 188.40245372 -87.03147722 183.46351798 -95.82421875 177.14453125 C-99.6664427 174.39701369 -103.66803239 171.99613922 -107.75 169.625 C-112.87150603 166.642999 -117.2982864 163.41841466 -121.6875 159.4375 C-122.3475 159.4375 -123.0075 159.4375 -123.6875 159.4375 C-131.47827038 137.17815607 -133.66378867 114.41348384 -126.3125 91.6875 C-122.77749993 84.61749986 -115.73047936 82.23326082 -108.6875 79.4375 C-107.20981521 79.09765767 -105.73072256 78.76385233 -104.25 78.4375 C-97.68064033 76.3963061 -93.49603115 70.04736351 -89.11035156 65.03857422 C-69.19798749 42.63203963 -37.16649944 29.77323555 -7.7109375 27.65234375 C26.94318592 25.81676445 60.43643552 38.51123219 86.3125 61.4375 C90.71670002 65.5966732 95.03040382 69.71160129 98.6484375 74.58203125 C101.8310205 77.99327491 104.09735733 78.7247452 108.5625 79.9375 C123.01560054 84.31232137 123.01560054 84.31232137 126.671875 90.87890625 C127.78243644 93.7076189 128.58892183 96.48721995 129.3125 99.4375 C129.64701172 100.61699219 129.64701172 100.61699219 129.98828125 101.8203125 C133.41153248 116.3050898 132.35468652 133.22303419 128.3125 147.4375 C127.90644531 149.03658203 127.90644531 149.03658203 127.4921875 150.66796875 C123.47850009 163.13568279 111.07386528 168.6462361 100.27905273 174.61035156 C96.82084384 176.52602558 93.61244199 178.58549448 90.4375 180.9375 C85.54138054 184.49534681 80.29065975 187.08874597 74.84423828 189.68554688 C71.39796168 191.33732757 68.25941526 192.98929348 65.3125 195.4375 C66.6325 195.7675 67.9525 196.0975 69.3125 196.4375 C69.3125 197.0975 69.3125 197.7575 69.3125 198.4375 C70.27671875 198.63085938 71.2409375 198.82421875 72.234375 199.0234375 C73.49765625 199.28382813 74.7609375 199.54421875 76.0625 199.8125 C77.31546875 200.06773437 78.5684375 200.32296875 79.859375 200.5859375 C83.3125 201.4375 83.3125 201.4375 85.3125 202.53125 C88.37747005 203.92006455 91.22873725 203.62423635 94.5625 203.5625 C95.82578125 203.54445312 97.0890625 203.52640625 98.390625 203.5078125 C99.35484375 203.48460937 100.3190625 203.46140625 101.3125 203.4375 C101.6425 204.0975 101.9725 204.7575 102.3125 205.4375 C104.35739904 206.49341481 104.35739904 206.49341481 106.75 207.4375 C109.54156973 208.58459767 111.15868666 209.28368666 113.3125 211.4375 C117.56039927 211.99115878 121.83684174 212.09078318 126.1159668 212.23535156 C128.23968296 212.31212702 130.36021872 212.42091612 132.48242188 212.53125 C133.8306553 212.58270264 135.17896325 212.63224534 136.52734375 212.6796875 C138.36993774 212.75485596 138.36993774 212.75485596 140.24975586 212.83154297 C143.35357959 212.73721932 143.35357959 212.73721932 145.140625 210.71289062 C147.21978895 206.6758473 148.24179731 202.44363928 149.375 198.0625 C149.76969482 196.54221191 149.76969482 196.54221191 150.17236328 194.99121094 C156.54534972 169.10671166 155.9379991 140.97096561 148.3125 115.4375 C147.95285156 114.20902344 147.59320313 112.98054688 147.22265625 111.71484375 C141.05525146 91.96668901 130.89883518 73.12066915 117.3125 57.4375 C116.6525 57.4375 115.9925 57.4375 115.3125 57.4375 C115.0959375 56.89609375 114.879375 56.3546875 114.65625 55.796875 C112.84750003 52.62104656 110.39526201 50.23021919 107.8125 47.6875 C107.31363281 47.18089844 106.81476563 46.67429688 106.30078125 46.15234375 C103.78188363 43.30944401 103.78188363 43.30944401 100.3125 42.4375 C100.3125 41.7775 100.3125 41.1175 100.3125 40.4375 C98.18459138 38.64895611 96.06079943 37.00115814 93.8125 35.375 C93.13759521 34.88547852 92.46269043 34.39595703 91.76733398 33.89160156 C30.55408268 -9.66357344 -52.08373258 -4.79219057 -106.6875 47.4375 Z " fill="#0D1447" transform="translate(170.6875,30.5625)"/>
<path d="M0 0 C3.36643271 0.0001612 6.73231332 -0.01354352 10.09863281 -0.04101562 C28.78782403 -0.19069213 47.28931653 0.23904948 65.89819336 2.08154297 C67.09647105 2.19197874 67.09647105 2.19197874 68.31895638 2.30464554 C78.88182474 3.30543247 88.93073736 4.57953008 96.46459961 12.80810547 C102.60706384 22.07774019 102.54113354 34.67153405 102.47314453 45.43945312 C102.46457246 47.50213756 102.49364614 49.56209363 102.52514648 51.62451172 C102.59903221 65.30265793 99.30989517 76.14819011 90.02709961 86.37060547 C74.47211654 100.84892304 48.38718112 105.65084427 28.02709961 108.37060547 C27.0512793 108.50337891 26.07545898 108.63615234 25.07006836 108.77294922 C7.35737144 110.66610716 -10.53484825 109.84863079 -27.97290039 106.37060547 C-28.82980469 106.20431641 -29.68670898 106.03802734 -30.56958008 105.86669922 C-49.23681553 102.14565561 -70.84452067 96.45549164 -82.91040039 80.62060547 C-89.02888962 70.73225774 -90.6148765 61.04797121 -90.43945312 49.5625 C-90.41052146 47.50421843 -90.41888797 45.44853499 -90.43188477 43.39013672 C-90.41510546 32.26512567 -90.00161145 20.08523273 -82.86352539 11.01904297 C-77.73957026 6.55146226 -72.62518012 4.68950587 -65.97290039 3.74560547 C-65.22914658 3.6377774 -64.48539276 3.52994934 -63.71910095 3.41885376 C-42.49040062 0.45534032 -21.39689677 -0.00543551 0 0 Z " fill="#075C93" transform="translate(164.972900390625,110.62939453125)"/>
<path d="M0 0 C99 0 198 0 300 0 C298.47115804 3.82210491 297.05270441 6.71051984 294.890625 10.125 C294.00697266 11.55585938 294.00697266 11.55585938 293.10546875 13.015625 C291.86411383 15.01224639 290.6113908 17.00184277 289.34765625 18.984375 C288.76371094 19.93828125 288.17976563 20.8921875 287.578125 21.875 C286.76456543 23.17050781 286.76456543 23.17050781 285.93457031 24.4921875 C284.73773438 26.97040158 284.73773438 26.97040158 285.64892578 29.49121094 C287.06371149 32.11830488 288.50225965 34.70753205 290.0390625 37.265625 C290.61914062 38.23757813 291.19921875 39.20953125 291.796875 40.2109375 C292.40015625 41.21382813 293.0034375 42.21671875 293.625 43.25 C294.82743621 45.25406035 296.02806276 47.25920802 297.2265625 49.265625 C297.75846191 50.15024414 298.29036133 51.03486328 298.83837891 51.94628906 C300 54 300 54 300 55 C201 55 102 55 0 55 C3.886412 47.87491133 7.72343363 41.00153213 12.26953125 34.32226562 C14.10484549 31.42811625 15.08421324 29.6382477 14.62890625 26.1875 C12.27982613 21.5907389 9.65403807 17.200265 6.9375 12.8125 C5.83983298 11.02895045 4.74466434 9.24386018 3.65234375 7.45703125 C3.16757568 6.67303955 2.68280762 5.88904785 2.18334961 5.08129883 C1 3 1 3 0 0 Z " fill="#0F184F" transform="translate(21,245)"/>
<path d="M0 0 C1.318862 0.00456207 1.318862 0.00456207 2.66436768 0.00921631 C15.89917694 0.0768897 28.53396265 0.71185406 41.3125 4.4375 C42.06466797 4.64648926 42.81683594 4.85547852 43.59179688 5.07080078 C71.2031131 12.9002628 93.63459269 27.91173415 114.3125 47.4375 C115.47652344 48.52804688 115.47652344 48.52804688 116.6640625 49.640625 C118.3125 51.4375 118.3125 51.4375 118.3125 53.4375 C118.9725 53.4375 119.6325 53.4375 120.3125 53.4375 C121.92805088 55.27599079 123.40838648 57.10942308 124.875 59.0625 C125.31900146 59.6507959 125.76300293 60.2390918 126.22045898 60.84521484 C142.37256439 82.51344372 152.23018449 105.90373235 157.3125 132.4375 C157.4882959 133.33476807 157.6640918 134.23203613 157.84521484 135.15649414 C158.40473634 139.0851302 158.53054075 142.96917082 158.5859375 146.9296875 C158.59832962 147.74477783 158.61072174 148.55986816 158.62348938 149.3996582 C158.65582801 152.0373139 158.67468751 154.67467908 158.6875 157.3125 C158.69206207 158.20922424 158.69662415 159.10594849 158.70132446 160.02984619 C158.72811449 174.72425915 157.48749886 188.27039412 153.3125 202.4375 C153.03615723 203.37625977 152.75981445 204.31501953 152.47509766 205.28222656 C151.76368361 207.67033604 151.04318597 210.05522875 150.3125 212.4375 C151.3025 212.1075 152.2925 211.7775 153.3125 211.4375 C153.9725 212.0975 154.6325 212.7575 155.3125 213.4375 C152.31770833 218.67838542 149.32291667 223.91927083 146.328125 229.16015625 C145.55952148 230.52164795 145.55952148 230.52164795 144.77539062 231.91064453 C143.87506001 233.46578837 142.94245598 235.00337901 141.95898438 236.50732422 C139.68448307 239.96553286 139.68448307 239.96553286 139.828125 243.9609375 C140.31796875 244.77820313 140.8078125 245.59546875 141.3125 246.4375 C141.88484375 247.48164063 142.4571875 248.52578125 143.046875 249.6015625 C143.71581458 250.75691291 144.38781395 251.91049589 145.0625 253.0625 C145.77692765 254.29636243 146.49045787 255.53074488 147.203125 256.765625 C147.55697266 257.37857422 147.91082031 257.99152344 148.27539062 258.62304688 C150.69382257 262.85416415 153.00104579 267.1473009 155.3125 271.4375 C154.3125 272.4375 154.3125 272.4375 150.36621094 272.46826172 C148.59308387 272.435374 146.81997285 272.4016145 145.046875 272.3671875 C143.10418164 272.35626977 141.16146807 272.34856672 139.21875 272.34375 C136.15628691 272.33594755 133.0986422 272.31342164 130.03710938 272.23535156 C115.27735842 271.71080033 115.27735842 271.71080033 102.8359375 278.69140625 C100.93547103 280.55954549 99.12914444 282.48520159 97.3125 284.4375 C81.22831603 297.40132213 61.96003732 305.68887075 42.3125 311.4375 C41.18070313 311.77523438 40.04890625 312.11296875 38.8828125 312.4609375 C2.69255263 322.36667259 -37.31534888 316.69410464 -70.6875 300.4375 C-71.80511719 299.89351563 -72.92273438 299.34953125 -74.07421875 298.7890625 C-82.53719787 294.44017335 -90.05364444 289.06515363 -97.6875 283.4375 C-98.6775 282.7775 -99.6675 282.1175 -100.6875 281.4375 C-100.6875 280.7775 -100.6875 280.1175 -100.6875 279.4375 C-101.244375 279.19 -101.80125 278.9425 -102.375 278.6875 C-104.6875 277.4375 -104.6875 277.4375 -106.69995117 275.39746094 C-111.00551901 272.57282266 -114.75286003 272.83474661 -119.80078125 272.828125 C-120.77033249 272.81158875 -121.73988373 272.79505249 -122.73881531 272.77801514 C-125.82594143 272.72955255 -128.91257499 272.70816775 -132 272.6875 C-134.09702997 272.65933891 -136.194037 272.62941129 -138.29101562 272.59765625 C-143.42313654 272.52379378 -148.55498429 272.47420829 -153.6875 272.4375 C-153.6875 268.2414444 -151.61246429 265.40762235 -149.5625 261.875 C-149.15596191 261.15989258 -148.74942383 260.44478516 -148.33056641 259.70800781 C-145.56159594 254.86094305 -142.66423198 250.1112849 -139.5859375 245.453125 C-138.42702417 242.85312814 -138.77404682 242.11798955 -139.6875 239.4375 C-140.76443245 237.39635579 -141.89837226 235.38494573 -143.06640625 233.39453125 C-143.39793198 232.82546555 -143.7294577 232.25639984 -144.07102966 231.67008972 C-145.12604726 229.86063382 -146.18760538 228.05513282 -147.25 226.25 C-148.3149805 224.43360725 -149.37853813 222.61641214 -150.43968201 220.79777527 C-151.39890016 219.15483529 -152.36255656 217.51448897 -153.32641602 215.87426758 C-154.6875 213.4375 -154.6875 213.4375 -154.6875 212.4375 C-152.7075 212.4375 -150.7275 212.4375 -148.6875 212.4375 C-148.92984375 211.85226563 -149.1721875 211.26703125 -149.421875 210.6640625 C-151.77268339 204.64237639 -153.47157231 198.60963041 -154.875 192.3125 C-155.04161133 191.57338379 -155.20822266 190.83426758 -155.37988281 190.07275391 C-157.50524096 180.21624185 -157.87393643 170.5370464 -157.87280273 160.48339844 C-157.87497451 158.33768413 -157.89314554 156.19249786 -157.91210938 154.046875 C-157.96663072 141.14052321 -156.76150636 128.61701056 -153.0625 116.1875 C-152.80452637 115.30763428 -152.54655273 114.42776855 -152.28076172 113.52124023 C-139.71279951 72.0914533 -112.11355753 38.24123769 -73.99609375 17.640625 C-61.74829524 11.24653292 -49.15756011 6.48854158 -35.6875 3.4375 C-34.52524902 3.17163086 -33.36299805 2.90576172 -32.16552734 2.63183594 C-21.39013333 0.38500935 -10.98699584 -0.08070087 0 0 Z M-106.6875 47.4375 C-107.39777344 48.08460937 -108.10804687 48.73171875 -108.83984375 49.3984375 C-124.69376812 64.3636247 -135.77020526 83.30425664 -143.6875 103.4375 C-144.06648438 104.39269531 -144.44546875 105.34789062 -144.8359375 106.33203125 C-155.689475 134.85316926 -155.84298834 165.76462276 -149.25 195.25 C-149.04479736 196.17482178 -148.83959473 197.09964355 -148.62817383 198.05249023 C-146.93794762 205.85630464 -146.93794762 205.85630464 -142.6875 212.4375 C-140.20163073 212.55080567 -137.74459148 212.60167337 -135.2578125 212.60546875 C-134.51167694 212.60879715 -133.76554138 212.61212555 -132.99679565 212.61555481 C-131.41469948 212.62062755 -129.83259258 212.62296303 -128.25048828 212.62280273 C-125.82957263 212.62498461 -123.4091159 212.6431234 -120.98828125 212.66210938 C-119.45312656 212.66504414 -117.9179697 212.66702838 -116.3828125 212.66796875 C-115.29518112 212.67874702 -115.29518112 212.67874702 -114.18557739 212.68974304 C-110.46344941 212.67283409 -108.86807873 212.55788582 -105.6875 210.4375 C-98.53323649 209.98326105 -98.53323649 209.98326105 -95.82667542 211.43693542 C-93.48953446 212.53009517 -91.98851753 212.69594186 -89.42553711 212.7121582 C-88.59465073 212.72169022 -87.76376434 212.73122223 -86.90769958 212.74104309 C-86.01905716 212.74013168 -85.13041473 212.73922028 -84.21484375 212.73828125 C-83.29538467 212.74256638 -82.3759256 212.7468515 -81.42860413 212.75126648 C-79.48781151 212.75700216 -77.5469974 212.75751565 -75.60620117 212.75317383 C-72.63227921 212.75000775 -69.65934633 212.7735035 -66.68554688 212.79882812 C-64.79948042 212.80110053 -62.91341129 212.80180489 -61.02734375 212.80078125 C-60.13667709 212.809991 -59.24601044 212.81920074 -58.32835388 212.82868958 C-57.50061966 212.82246078 -56.67288544 212.81623199 -55.82006836 212.80981445 C-54.72897011 212.81075859 -54.72897011 212.81075859 -53.61582947 212.8117218 C-51.14261592 212.33175692 -50.39563475 211.23678283 -48.6875 209.4375 C-43.26517573 207.63005858 -39.33828019 206.99911959 -33.6875 208.4375 C-32.71280762 209.10386475 -31.73811523 209.77022949 -30.73388672 210.45678711 C-25.63267707 213.43203172 -20.2656185 213.029477 -14.5078125 213.00390625 C-12.7568074 213.01320412 -12.7568074 213.01320412 -10.97042847 213.02268982 C-8.50780061 213.02977526 -6.04512473 213.02663642 -3.58251953 213.01391602 C0.16854872 213.00006995 3.91711159 213.03412215 7.66796875 213.07226562 C10.06770894 213.0732171 12.46745223 213.07135648 14.8671875 213.06640625 C15.97996063 213.07966446 17.09273376 213.09292267 18.23922729 213.10658264 C24.69474382 213.03009927 28.95687527 212.18802045 34.32351685 208.5030365 C38.91224605 206.04476608 44.08700091 208.10924132 48.8125 209.375 C51.3125 210.4375 51.3125 210.4375 52.3125 212.4375 C58.22069071 212.48695048 64.12876084 212.52324364 70.03710938 212.54736328 C72.04689635 212.5574187 74.0566687 212.57106485 76.06640625 212.58837891 C78.95576588 212.61264724 81.84493202 212.62398771 84.734375 212.6328125 C85.63242859 212.64313507 86.53048218 212.65345764 87.45574951 212.66409302 C88.29631897 212.66424408 89.13688843 212.66439514 90.00292969 212.66455078 C90.74017273 212.668992 91.47741577 212.67343323 92.23699951 212.67800903 C94.62649643 212.40111409 96.18633307 211.52974095 98.3125 210.4375 C104.53651671 209.99292738 104.53651671 209.99292738 107.04858398 211.43212891 C110.31388536 212.88220019 113.52384377 212.76248687 117.03515625 212.7734375 C117.77704697 212.7800943 118.51893768 212.7867511 119.28330994 212.79360962 C120.84745816 212.80371105 122.41164927 212.80842742 123.97583008 212.80810547 C126.37067066 212.81249207 128.76368678 212.8488705 131.15820312 212.88671875 C132.67968121 212.8925848 134.20116802 212.89655561 135.72265625 212.8984375 C136.79617088 212.91999405 136.79617088 212.91999405 137.89137268 212.94198608 C141.0384716 212.91297794 142.83086236 212.88320574 145.19091797 210.69921875 C147.20065738 206.64649218 148.24544597 202.42953299 149.375 198.0625 C149.76969482 196.54221191 149.76969482 196.54221191 150.17236328 194.99121094 C156.54534972 169.10671166 155.9379991 140.97096561 148.3125 115.4375 C147.95285156 114.20902344 147.59320313 112.98054688 147.22265625 111.71484375 C141.05525146 91.96668901 130.89883518 73.12066915 117.3125 57.4375 C116.6525 57.4375 115.9925 57.4375 115.3125 57.4375 C115.0959375 56.89609375 114.879375 56.3546875 114.65625 55.796875 C112.84750003 52.62104656 110.39526201 50.23021919 107.8125 47.6875 C107.31363281 47.18089844 106.81476563 46.67429688 106.30078125 46.15234375 C103.78188363 43.30944401 103.78188363 43.30944401 100.3125 42.4375 C100.3125 41.7775 100.3125 41.1175 100.3125 40.4375 C98.18459138 38.64895611 96.06079943 37.00115814 93.8125 35.375 C93.13759521 34.88547852 92.46269043 34.39595703 91.76733398 33.89160156 C30.55408268 -9.66357344 -52.08373258 -4.79219057 -106.6875 47.4375 Z M-149.6875 214.4375 C-148.15865804 218.25960491 -146.74020441 221.14801984 -144.578125 224.5625 C-143.98902344 225.51640625 -143.39992187 226.4703125 -142.79296875 227.453125 C-141.55161383 229.44974639 -140.2988908 231.43934277 -139.03515625 233.421875 C-138.45121094 234.37578125 -137.86726563 235.3296875 -137.265625 236.3125 C-136.72325195 237.17617188 -136.18087891 238.03984375 -135.62207031 238.9296875 C-134.6875 241.4375 -134.6875 241.4375 -135.33642578 243.92871094 C-136.75121149 246.55580488 -138.18975965 249.14503205 -139.7265625 251.703125 C-140.59667969 253.16105469 -140.59667969 253.16105469 -141.484375 254.6484375 C-142.38929688 256.15277344 -142.38929688 256.15277344 -143.3125 257.6875 C-144.51493621 259.69156035 -145.71556276 261.69670802 -146.9140625 263.703125 C-147.71191162 265.03005371 -147.71191162 265.03005371 -148.52587891 266.38378906 C-149.76955386 268.18932398 -149.76955386 268.18932398 -149.6875 269.4375 C-50.6875 269.4375 48.3125 269.4375 150.3125 269.4375 C146.426088 262.31241133 142.58906637 255.43903213 138.04296875 248.75976562 C136.20765451 245.86561625 135.22828676 244.0757477 135.68359375 240.625 C138.03267387 236.0282389 140.65846193 231.637765 143.375 227.25 C144.47266702 225.46645045 145.56783566 223.68136018 146.66015625 221.89453125 C147.14492432 221.11053955 147.62969238 220.32654785 148.12915039 219.51879883 C149.44681323 217.35788506 149.44681323 217.35788506 150.3125 214.4375 C51.3125 214.4375 -47.6875 214.4375 -149.6875 214.4375 Z " fill="#FEFEFE" transform="translate(170.6875,30.5625)"/>
<path d="M0 0 C1.4935172 8.88860235 2.31528233 17.59809453 2.57006836 26.60083008 C2.6826314 32.10727454 2.6826314 32.10727454 5 37 C7.48773554 38.24386777 9.16979165 38.13360954 11.95288086 38.14526367 C13.49974831 38.15483345 13.49974831 38.15483345 15.0778656 38.16459656 C16.19556839 38.16570938 17.31327118 38.1668222 18.46484375 38.16796875 C20.18121788 38.17296135 20.18121788 38.17296135 21.93226624 38.17805481 C24.35580034 38.18312468 26.77934145 38.18546312 29.20288086 38.18530273 C32.91857354 38.18748886 36.63396928 38.20564323 40.34960938 38.22460938 C42.70051981 38.22754329 45.05143167 38.2295281 47.40234375 38.23046875 C48.51802231 38.23765427 49.63370087 38.24483978 50.78318787 38.25224304 C51.81758499 38.24916641 52.85198212 38.24608978 53.91772461 38.24291992 C54.82880478 38.24434494 55.73988495 38.24576996 56.67857361 38.24723816 C59.27380131 38.15218945 59.27380131 38.15218945 62 36 C63.24797307 32.25608079 63.27850122 28.65624629 63.4375 24.75 C63.82965729 16.41051685 64.74621413 8.25307595 66 0 C89.18779372 5.61436738 113.87258483 19.42762292 127.72265625 39.49609375 C139.02647443 60.5481588 139.69959809 88.16268354 134 111 C131.49143164 119.18730552 127.68761449 125.63528854 122 132 C121.19949219 132.92232422 121.19949219 132.92232422 120.3828125 133.86328125 C102.53236887 153.12297043 69.02481603 162.84887031 43.47045898 164.12646484 C10.53435231 165.05191786 -27.75930177 160.7492331 -53.33203125 137.91796875 C-68.87322798 121.90132431 -71.64749773 98.24832864 -71.34765625 76.96484375 C-70.98408231 67.64122595 -68.66424148 58.89522395 -66 50 C-65.69707031 48.86046875 -65.39414063 47.7209375 -65.08203125 46.546875 C-60.4007215 32.25454972 -45.34092659 21.5131104 -33 14 C-32.37480469 13.61618164 -31.74960938 13.23236328 -31.10546875 12.83691406 C-9.99171229 0 -9.99171229 0 0 0 Z M-55 54 C-55.4846875 54.45761719 -55.969375 54.91523437 -56.46875 55.38671875 C-63.92652942 63.99351651 -63.51424335 78.26776005 -63.44604492 89.06884766 C-63.43747285 91.13153209 -63.46654653 93.19148817 -63.49804688 95.25390625 C-63.57198246 108.94128183 -60.27627427 119.76523154 -51 130 C-28.76995156 151.015978 11.31948299 153.85657627 40.16748047 153.11376953 C46.85120622 152.84531442 53.39752806 152.04457019 60 151 C61.28519531 150.80535156 62.57039063 150.61070312 63.89453125 150.41015625 C83.53103039 147.10151382 109.35198525 141.62553724 121.625 124.4375 C122.44871094 123.32181641 122.44871094 123.32181641 123.2890625 122.18359375 C128.34708159 112.77198289 129.62797304 103.7605451 129.46655273 93.19189453 C129.43762107 91.13361297 129.44598758 89.07792952 129.45898438 87.01953125 C129.43698952 69.70257219 129.43698952 69.70257219 121.89064026 54.7480011 C113.8272233 47.29292781 103.27607967 46.66988271 92.87109375 45.7109375 C91.63655362 45.58870378 91.63655362 45.58870378 90.37707329 45.4640007 C71.78132084 43.63849629 53.24212791 43.45641276 34.57354736 43.60876465 C31.19153 43.63063132 27.80966814 43.62960741 24.42759228 43.62874699 C-17.71308481 40.98112302 -17.71308481 40.98112302 -55 54 Z " fill="#F9BC06" transform="translate(138,67)"/>
<path d="M0 0 C1.318862 0.00456207 1.318862 0.00456207 2.66436768 0.00921631 C15.89917694 0.0768897 28.53396265 0.71185406 41.3125 4.4375 C42.06466797 4.64648926 42.81683594 4.85547852 43.59179688 5.07080078 C71.2031131 12.9002628 93.63459269 27.91173415 114.3125 47.4375 C115.47652344 48.52804688 115.47652344 48.52804688 116.6640625 49.640625 C118.3125 51.4375 118.3125 51.4375 118.3125 53.4375 C118.9725 53.4375 119.6325 53.4375 120.3125 53.4375 C121.92805088 55.27599079 123.40838648 57.10942308 124.875 59.0625 C125.31900146 59.6507959 125.76300293 60.2390918 126.22045898 60.84521484 C142.37256439 82.51344372 152.23018449 105.90373235 157.3125 132.4375 C157.4882959 133.33476807 157.6640918 134.23203613 157.84521484 135.15649414 C158.40473634 139.0851302 158.53054075 142.96917082 158.5859375 146.9296875 C158.59832962 147.74477783 158.61072174 148.55986816 158.62348938 149.3996582 C158.65582801 152.0373139 158.67468751 154.67467908 158.6875 157.3125 C158.69206207 158.20922424 158.69662415 159.10594849 158.70132446 160.02984619 C158.72811449 174.72425915 157.48749886 188.27039412 153.3125 202.4375 C153.03615723 203.37625977 152.75981445 204.31501953 152.47509766 205.28222656 C151.76368361 207.67033604 151.04318597 210.05522875 150.3125 212.4375 C151.3025 212.1075 152.2925 211.7775 153.3125 211.4375 C153.9725 212.0975 154.6325 212.7575 155.3125 213.4375 C153.35593098 216.87600709 151.39694216 220.31312949 149.4375 223.75 C148.88191406 224.72646484 148.32632812 225.70292969 147.75390625 226.70898438 C146.95146484 228.11567383 146.95146484 228.11567383 146.1328125 229.55078125 C145.39442139 230.84689331 145.39442139 230.84689331 144.64111328 232.16918945 C142.21371613 236.31342815 140.85789621 237.88249603 136.3125 239.4375 C138.03132142 234.53495254 140.6612726 230.25141216 143.3125 225.8125 C143.76367188 225.049375 144.21484375 224.28625 144.6796875 223.5 C146.4998106 220.43056164 148.33232839 217.40775741 150.3125 214.4375 C51.3125 214.4375 -47.6875 214.4375 -149.6875 214.4375 C-142.31917718 226.72878096 -142.31917718 226.72878096 -134.70703125 238.8515625 C-133.6875 241.4375 -133.6875 241.4375 -134.44262695 243.77001953 C-136.68652475 248.57818336 -139.39009723 253.10791992 -142.0625 257.6875 C-142.64 258.70585937 -143.2175 259.72421875 -143.8125 260.7734375 C-144.37710938 261.74023438 -144.94171875 262.70703125 -145.5234375 263.703125 C-146.03438965 264.58774414 -146.5453418 265.47236328 -147.07177734 266.38378906 C-148.6875 268.4375 -148.6875 268.4375 -150.88525391 269.23339844 C-151.47999512 269.30075195 -152.07473633 269.36810547 -152.6875 269.4375 C-150.86805742 262.41468343 -146.63361818 256.64642874 -142.76757812 250.60546875 C-142.23197266 249.74308594 -141.69636719 248.88070312 -141.14453125 247.9921875 C-140.64928955 247.21343262 -140.15404785 246.43467773 -139.64379883 245.63232422 C-138.53199778 243.54341223 -138.53199778 243.54341223 -138.82275391 241.53051758 C-140.00728398 238.66349998 -141.49613543 236.07038641 -143.06640625 233.39453125 C-143.39793198 232.82546555 -143.7294577 232.25639984 -144.07102966 231.67008972 C-145.12604726 229.86063382 -146.18760538 228.05513282 -147.25 226.25 C-148.3149805 224.43360725 -149.37853813 222.61641214 -150.43968201 220.79777527 C-151.39890016 219.15483529 -152.36255656 217.51448897 -153.32641602 215.87426758 C-154.6875 213.4375 -154.6875 213.4375 -154.6875 212.4375 C-152.7075 212.4375 -150.7275 212.4375 -148.6875 212.4375 C-148.92984375 211.85226563 -149.1721875 211.26703125 -149.421875 210.6640625 C-151.77268339 204.64237639 -153.47157231 198.60963041 -154.875 192.3125 C-155.04161133 191.57338379 -155.20822266 190.83426758 -155.37988281 190.07275391 C-157.50524096 180.21624185 -157.87393643 170.5370464 -157.87280273 160.48339844 C-157.87497451 158.33768413 -157.89314554 156.19249786 -157.91210938 154.046875 C-157.96663072 141.14052321 -156.76150636 128.61701056 -153.0625 116.1875 C-152.80452637 115.30763428 -152.54655273 114.42776855 -152.28076172 113.52124023 C-139.71279951 72.0914533 -112.11355753 38.24123769 -73.99609375 17.640625 C-61.74829524 11.24653292 -49.15756011 6.48854158 -35.6875 3.4375 C-34.52524902 3.17163086 -33.36299805 2.90576172 -32.16552734 2.63183594 C-21.39013333 0.38500935 -10.98699584 -0.08070087 0 0 Z M-106.6875 47.4375 C-107.39777344 48.08460937 -108.10804687 48.73171875 -108.83984375 49.3984375 C-124.69376812 64.3636247 -135.77020526 83.30425664 -143.6875 103.4375 C-144.06648438 104.39269531 -144.44546875 105.34789062 -144.8359375 106.33203125 C-155.689475 134.85316926 -155.84298834 165.76462276 -149.25 195.25 C-149.04479736 196.17482178 -148.83959473 197.09964355 -148.62817383 198.05249023 C-146.93794762 205.85630464 -146.93794762 205.85630464 -142.6875 212.4375 C-140.20163073 212.55080567 -137.74459148 212.60167337 -135.2578125 212.60546875 C-134.51167694 212.60879715 -133.76554138 212.61212555 -132.99679565 212.61555481 C-131.41469948 212.62062755 -129.83259258 212.62296303 -128.25048828 212.62280273 C-125.82957263 212.62498461 -123.4091159 212.6431234 -120.98828125 212.66210938 C-119.45312656 212.66504414 -117.9179697 212.66702838 -116.3828125 212.66796875 C-115.29518112 212.67874702 -115.29518112 212.67874702 -114.18557739 212.68974304 C-110.46344941 212.67283409 -108.86807873 212.55788582 -105.6875 210.4375 C-98.53323649 209.98326105 -98.53323649 209.98326105 -95.82667542 211.43693542 C-93.48953446 212.53009517 -91.98851753 212.69594186 -89.42553711 212.7121582 C-88.59465073 212.72169022 -87.76376434 212.73122223 -86.90769958 212.74104309 C-86.01905716 212.74013168 -85.13041473 212.73922028 -84.21484375 212.73828125 C-83.29538467 212.74256638 -82.3759256 212.7468515 -81.42860413 212.75126648 C-79.48781151 212.75700216 -77.5469974 212.75751565 -75.60620117 212.75317383 C-72.63227921 212.75000775 -69.65934633 212.7735035 -66.68554688 212.79882812 C-64.79948042 212.80110053 -62.91341129 212.80180489 -61.02734375 212.80078125 C-60.13667709 212.809991 -59.24601044 212.81920074 -58.32835388 212.82868958 C-57.50061966 212.82246078 -56.67288544 212.81623199 -55.82006836 212.80981445 C-54.72897011 212.81075859 -54.72897011 212.81075859 -53.61582947 212.8117218 C-51.14261592 212.33175692 -50.39563475 211.23678283 -48.6875 209.4375 C-43.26517573 207.63005858 -39.33828019 206.99911959 -33.6875 208.4375 C-32.71280762 209.10386475 -31.73811523 209.77022949 -30.73388672 210.45678711 C-25.63267707 213.43203172 -20.2656185 213.029477 -14.5078125 213.00390625 C-12.7568074 213.01320412 -12.7568074 213.01320412 -10.97042847 213.02268982 C-8.50780061 213.02977526 -6.04512473 213.02663642 -3.58251953 213.01391602 C0.16854872 213.00006995 3.91711159 213.03412215 7.66796875 213.07226562 C10.06770894 213.0732171 12.46745223 213.07135648 14.8671875 213.06640625 C15.97996063 213.07966446 17.09273376 213.09292267 18.23922729 213.10658264 C24.69474382 213.03009927 28.95687527 212.18802045 34.32351685 208.5030365 C38.91224605 206.04476608 44.08700091 208.10924132 48.8125 209.375 C51.3125 210.4375 51.3125 210.4375 52.3125 212.4375 C58.22069071 212.48695048 64.12876084 212.52324364 70.03710938 212.54736328 C72.04689635 212.5574187 74.0566687 212.57106485 76.06640625 212.58837891 C78.95576588 212.61264724 81.84493202 212.62398771 84.734375 212.6328125 C85.63242859 212.64313507 86.53048218 212.65345764 87.45574951 212.66409302 C88.29631897 212.66424408 89.13688843 212.66439514 90.00292969 212.66455078 C90.74017273 212.668992 91.47741577 212.67343323 92.23699951 212.67800903 C94.62649643 212.40111409 96.18633307 211.52974095 98.3125 210.4375 C104.53651671 209.99292738 104.53651671 209.99292738 107.04858398 211.43212891 C110.31388536 212.88220019 113.52384377 212.76248687 117.03515625 212.7734375 C117.77704697 212.7800943 118.51893768 212.7867511 119.28330994 212.79360962 C120.84745816 212.80371105 122.41164927 212.80842742 123.97583008 212.80810547 C126.37067066 212.81249207 128.76368678 212.8488705 131.15820312 212.88671875 C132.67968121 212.8925848 134.20116802 212.89655561 135.72265625 212.8984375 C136.79617088 212.91999405 136.79617088 212.91999405 137.89137268 212.94198608 C141.0384716 212.91297794 142.83086236 212.88320574 145.19091797 210.69921875 C147.20065738 206.64649218 148.24544597 202.42953299 149.375 198.0625 C149.76969482 196.54221191 149.76969482 196.54221191 150.17236328 194.99121094 C156.54534972 169.10671166 155.9379991 140.97096561 148.3125 115.4375 C147.95285156 114.20902344 147.59320313 112.98054688 147.22265625 111.71484375 C141.05525146 91.96668901 130.89883518 73.12066915 117.3125 57.4375 C116.6525 57.4375 115.9925 57.4375 115.3125 57.4375 C115.0959375 56.89609375 114.879375 56.3546875 114.65625 55.796875 C112.84750003 52.62104656 110.39526201 50.23021919 107.8125 47.6875 C107.31363281 47.18089844 106.81476563 46.67429688 106.30078125 46.15234375 C103.78188363 43.30944401 103.78188363 43.30944401 100.3125 42.4375 C100.3125 41.7775 100.3125 41.1175 100.3125 40.4375 C98.18459138 38.64895611 96.06079943 37.00115814 93.8125 35.375 C93.13759521 34.88547852 92.46269043 34.39595703 91.76733398 33.89160156 C30.55408268 -9.66357344 -52.08373258 -4.79219057 -106.6875 47.4375 Z " fill="#FEFEFD" transform="translate(170.6875,30.5625)"/>
<path d="M0 0 C-0.09087891 1.16789062 -0.09087891 1.16789062 -0.18359375 2.359375 C-0.60518443 7.98923213 -1.00166861 13.59942474 -1.18359375 19.2421875 C-1.21590088 20.13325195 -1.24820801 21.02431641 -1.28149414 21.94238281 C-1.34309241 23.70959384 -1.39334402 25.47724242 -1.43139648 27.24511719 C-1.47695679 28.47343262 -1.47695679 28.47343262 -1.5234375 29.7265625 C-1.54325684 30.45439941 -1.56307617 31.18223633 -1.58349609 31.93212891 C-2.13399449 34.66525988 -3.09134266 35.97143962 -5 38 C-7.31469727 38.50793457 -7.31469727 38.50793457 -10.06640625 38.51757812 C-11.09757568 38.53018677 -12.12874512 38.54279541 -13.19116211 38.55578613 C-14.30370361 38.54768921 -15.41624512 38.53959229 -16.5625 38.53125 C-17.70533447 38.5350769 -18.84816895 38.53890381 -20.02563477 38.54284668 C-22.44320557 38.5455701 -24.86080562 38.53817903 -27.27832031 38.52148438 C-30.98569226 38.5000826 -34.69112606 38.52127338 -38.3984375 38.546875 C-40.74479596 38.5442318 -43.09115321 38.53910699 -45.4375 38.53125 C-47.10631226 38.54339539 -47.10631226 38.54339539 -48.80883789 38.55578613 C-49.84000732 38.54317749 -50.87117676 38.53056885 -51.93359375 38.51757812 C-52.84165771 38.51439575 -53.74972168 38.51121338 -54.68530273 38.50793457 C-57 38 -57 38 -58.7906189 36.10362244 C-60.16992462 33.7044296 -60.4062963 32.22417784 -60.4765625 29.47265625 C-60.50693604 28.60342529 -60.53730957 27.73419434 -60.56860352 26.83862305 C-60.58721436 25.92250244 -60.6058252 25.00638184 -60.625 24.0625 C-60.68732275 22.17442976 -60.75112419 20.28640774 -60.81640625 18.3984375 C-60.84492676 17.47901367 -60.87344727 16.55958984 -60.90283203 15.61230469 C-61.0968683 10.39575165 -61.54659178 5.199724 -62 0 C-44.11206868 -6.67007609 -17.74013395 -8.87006698 0 0 Z " fill="#FED55A" transform="translate(202,66)"/>
<path d="M0 0 C3.36643271 0.0001612 6.73231332 -0.01354352 10.09863281 -0.04101562 C28.78782403 -0.19069213 47.28931653 0.23904948 65.89819336 2.08154297 C67.09647105 2.19197874 67.09647105 2.19197874 68.31895638 2.30464554 C78.88182474 3.30543247 88.93073736 4.57953008 96.46459961 12.80810547 C102.60706384 22.07774019 102.54113354 34.67153405 102.47314453 45.43945312 C102.46457246 47.50213756 102.49364614 49.56209363 102.52514648 51.62451172 C102.59903221 65.30265793 99.30989517 76.14819011 90.02709961 86.37060547 C74.47211654 100.84892304 48.38718112 105.65084427 28.02709961 108.37060547 C27.0512793 108.50337891 26.07545898 108.63615234 25.07006836 108.77294922 C7.35737144 110.66610716 -10.53484825 109.84863079 -27.97290039 106.37060547 C-28.82980469 106.20431641 -29.68670898 106.03802734 -30.56958008 105.86669922 C-49.23681553 102.14565561 -70.84452067 96.45549164 -82.91040039 80.62060547 C-89.02888962 70.73225774 -90.6148765 61.04797121 -90.43945312 49.5625 C-90.41052146 47.50421843 -90.41888797 45.44853499 -90.43188477 43.39013672 C-90.41510546 32.26512567 -90.00161145 20.08523273 -82.86352539 11.01904297 C-77.73957026 6.55146226 -72.62518012 4.68950587 -65.97290039 3.74560547 C-65.22914658 3.6377774 -64.48539276 3.52994934 -63.71910095 3.41885376 C-42.49040062 0.45534032 -21.39689677 -0.00543551 0 0 Z M-80.34790039 14.87060547 C-86.9151774 24.97410857 -86.19989366 37.88220351 -86.34790039 49.55810547 C-86.37384277 50.63785645 -86.39978516 51.71760742 -86.42651367 52.83007812 C-86.45523222 65.41071621 -82.88422536 75.41093697 -73.97290039 84.37060547 C-54.13289014 102.63194824 -19.39957525 104.81743406 6.08959961 104.74560547 C6.89214172 104.74439697 7.69468384 104.74318848 8.52154541 104.74194336 C33.9824137 104.63855409 67.65108774 101.26647803 87.42944336 83.17138672 C99.78055373 69.24996403 98.79704279 51.46274378 97.90698242 34.01611328 C97.36533649 26.46412006 96.59779363 18.9548206 91.02709961 13.37060547 C86.29171405 9.59490604 82.36352828 8.49545127 76.52709961 7.74560547 C75.21044312 7.56904419 75.21044312 7.56904419 73.8671875 7.38891602 C70.92329285 7.01715967 67.97743998 6.68700223 65.02709961 6.37060547 C64.06529785 6.26474121 63.10349609 6.15887695 62.11254883 6.04980469 C43.28083918 4.11291654 24.37570191 4.16143351 5.46459961 4.12060547 C4.2286203 4.11533844 2.99264099 4.11007141 1.71920776 4.10464478 C-41.93578671 1.26508769 -41.93578671 1.26508769 -80.34790039 14.87060547 Z " fill="#0F1849" transform="translate(164.972900390625,110.62939453125)"/>
<path d="M0 0 C0 0.99 0 1.98 0 3 C-1.09957031 3.42410156 -2.19914062 3.84820312 -3.33203125 4.28515625 C-16.74883555 9.56185476 -27.63047244 15.80358642 -38 26 C-39.04994141 27.03060547 -39.04994141 27.03060547 -40.12109375 28.08203125 C-55.6473246 44.39516659 -62.17261576 66.45130396 -62.29516602 88.46533203 C-62.3066366 89.8944696 -62.32701004 91.32356601 -62.35668945 92.75244141 C-62.64111844 106.49083794 -60.472916 118.43972593 -51 129 C-40.40944456 138.99303383 -24.18106918 144.05191659 -10.16772461 146.80932617 C-8.43397574 147.15414746 -6.71467679 147.57026711 -5 148 C-4.67 148.66 -4.34 149.32 -4 150 C-2.17855778 150.809899 -2.17855778 150.809899 0.05078125 151.4375 C0.89576172 151.69273437 1.74074219 151.94796875 2.61132812 152.2109375 C3.50271484 152.47132813 4.39410156 152.73171875 5.3125 153 C6.16134766 153.26039063 7.01019531 153.52078125 7.88476562 153.7890625 C20.03164453 157.39758767 31.57481248 158.30259292 44.1640625 158.20581055 C46.62770935 158.18747984 49.09097924 158.18530217 51.5546875 158.18554688 C59.43485732 158.16737882 67.1698827 157.99266193 75 157 C72.77562185 159.22437815 71.92325327 159.42088102 68.9296875 160.03515625 C68.115 160.20466797 67.3003125 160.37417969 66.4609375 160.54882812 C65.60757813 160.71833984 64.75421875 160.88785156 63.875 161.0625 C63.04484375 161.23587891 62.2146875 161.40925781 61.359375 161.58789062 C28.32109148 168.34572134 -14.42406771 164.28954039 -43.39404297 145.75805664 C-59.43141497 134.86700551 -66.4498783 119.51407551 -70 101 C-72.64946937 83.40251086 -71.0866352 66.98297982 -66 50 C-65.69707031 48.86046875 -65.39414063 47.7209375 -65.08203125 46.546875 C-60.4007215 32.25454972 -45.34092659 21.5131104 -33 14 C-32.37480469 13.61618164 -31.74960938 13.23236328 -31.10546875 12.83691406 C-9.99171229 0 -9.99171229 0 0 0 Z " fill="#AF871A" transform="translate(138,67)"/>
<path d="M0 0 C7.4008381 3.4887833 11.34701931 9.90690497 14.3125 17.25 C16.36459459 28.44324322 14.47695266 36.41862532 9.25 46.3125 C5.79704203 50.43686647 2.06775306 53.4030599 -3.30859375 54.44921875 C-8.66521578 54.71117834 -11.86366121 53.57229259 -16 50 C-23.73146345 41.72913212 -25.35179945 34.28315893 -25.203125 23.28125 C-24.63475369 14.09986735 -20.77939302 8.15480403 -14 2 C-9.57257249 -0.76603755 -5.06436319 -0.85294538 0 0 Z " fill="#A3ABBB" transform="translate(223,147)"/>
<path d="M0 0 C6.05074351 2.476966 9.75751293 6.10759925 12.34375 12.0703125 C15.43549376 21.16151141 14.91827546 30.7100284 11.26953125 39.5546875 C8.53314505 44.82538831 4.65159974 49.81642737 -1 52 C-5.8842522 52.65670618 -9.74209977 52.58056934 -14.25 50.5 C-21.23667246 44.14847958 -25.35333821 37.35484916 -26.31640625 27.890625 C-26.57854179 20.68612554 -26.06693236 14.12722527 -22 8 C-15.15781707 1.35226632 -9.56699065 -1.30000005 0 0 Z " fill="#A4ABBB" transform="translate(137,149)"/>
<path d="M0 0 C23.18779372 5.61436738 47.87258483 19.42762292 61.72265625 39.49609375 C70.54665156 55.92977308 71.37135494 74.8036077 71 93 C70.67 93 70.34 93 70 93 C69.94054199 92.01157104 69.94054199 92.01157104 69.87988281 91.00317383 C68.88777165 66.72449836 68.88777165 66.72449836 57.20703125 46.171875 C42.0949117 33.12952042 17.08612661 29.15087676 -2 26 C-2.26275688 17.1262658 -1.32374613 8.75799894 0 0 Z " fill="#FBD359" transform="translate(204,67)"/>
<path d="M0 0 C1.02262939 0.1659668 2.04525879 0.33193359 3.09887695 0.50292969 C10.23966684 1.74311123 10.23966684 1.74311123 13.625 4 C12.73570801 3.93071289 11.84641602 3.86142578 10.93017578 3.79003906 C-2.24643965 2.88264317 -15.4092471 2.77981044 -28.61376953 2.75976562 C-32.49923657 2.75000192 -36.38418624 2.71885318 -40.26953125 2.6875 C-67.31710377 2.1552052 -67.31710377 2.1552052 -90.74609375 14.1796875 C-96.41930755 20.51953794 -99.43634555 27.8188782 -101.375 36 C-101.56835938 36.74378906 -101.76171875 37.48757812 -101.9609375 38.25390625 C-103.85616981 46.37044463 -104.00927232 54.70375639 -104.375 63 C-112.03721863 51.50667205 -112.03923535 33.22908078 -109.75 19.9375 C-107.45456829 11.66743399 -101.86138354 5.71269702 -94.6875 1.375 C-67.24778415 -10.01507073 -28.32527847 -4.62191027 0 0 Z " fill="#5992B7" transform="translate(202.375,120)"/>
<path d="M0 0 C47.17757009 -0.60747664 47.17757009 -0.60747664 58 3 C58.36783671 10.35673416 58.36783671 10.35673416 56.79833984 13.10144043 C55 15 55 15 52.68530273 15.50793457 C51.32320679 15.51270813 51.32320679 15.51270813 49.93359375 15.51757812 C48.90242432 15.53018677 47.87125488 15.54279541 46.80883789 15.55578613 C45.69629639 15.54768921 44.58375488 15.53959229 43.4375 15.53125 C42.29466553 15.5350769 41.15183105 15.53890381 39.97436523 15.54284668 C37.55679443 15.5455701 35.13919438 15.53817903 32.72167969 15.52148438 C29.01430774 15.5000826 25.30887394 15.52127338 21.6015625 15.546875 C19.25520404 15.5442318 16.90884679 15.53910699 14.5625 15.53125 C12.89368774 15.54339539 12.89368774 15.54339539 11.19116211 15.55578613 C10.15999268 15.54317749 9.12882324 15.53056885 8.06640625 15.51757812 C7.15834229 15.51439575 6.25027832 15.51121338 5.31469727 15.50793457 C3 15 3 15 1.20166016 13.14245605 C-0.35760574 10.36241992 -0.30054421 8.41523785 -0.1875 5.25 C-0.16042969 4.26515625 -0.13335937 3.2803125 -0.10546875 2.265625 C-0.07066406 1.51796875 -0.03585938 0.7703125 0 0 Z " fill="#FEC006" transform="translate(142,89)"/>
<path d="M0 0 C0 2.31 0 4.62 0 7 C-1.19991577 7.029729 -1.19991577 7.029729 -2.42407227 7.06005859 C-20.30870106 7.52599855 -37.62220666 8.00843539 -54.98950195 12.7668457 C-56.64955457 13.21700468 -58.32386258 13.61401925 -60 14 C-61.87824891 12.12175109 -61.39102397 8.96064724 -61.5625 6.4375 C-61.64628906 5.23996094 -61.73007813 4.04242188 -61.81640625 2.80859375 C-61.87699219 1.88175781 -61.93757812 0.95492187 -62 0 C-44.11206868 -6.67007609 -17.74013395 -8.87006698 0 0 Z " fill="#FDBF07" transform="translate(202,66)"/>
<path d="M0 0 C-1 3 -1 3 -3.8125 5 C-10.61258534 10.52812693 -11.53576889 20.39184078 -12.484375 28.58740234 C-14.3507639 47.6685369 -13.2506213 63.43839998 -1 79 C-0.34 79.33 0.32 79.66 1 80 C1 80.66 1 81.32 1 82 C-7.02148573 79.10492152 -13.96101782 73.55869121 -18 66 C-21.52384909 57.65475738 -22.59328955 50.19177591 -22.375 41.1875 C-22.35022583 39.4861792 -22.35022583 39.4861792 -22.32495117 37.75048828 C-21.7939912 12.20237319 -21.7939912 12.20237319 -15 5 C-9.9296439 1.04512224 -6.37131443 -0.14158477 0 0 Z " fill="#06437B" transform="translate(101,119)"/>
<path d="M0 0 C2.89684158 -0.10829314 5.78961019 -0.18743954 8.6875 -0.25 C9.50412109 -0.28351563 10.32074219 -0.31703125 11.16210938 -0.3515625 C15.27177669 -0.41811582 17.45116223 -0.32846046 21.0546875 1.828125 C23 4 23 4 23.4375 7 C23.02914449 9.80015206 22.47068318 11.61013983 21 14 C21.99 14.33 22.98 14.66 24 15 C24.8125 18.1875 24.8125 18.1875 25 22 C23.15625 24.71875 23.15625 24.71875 20 27 C16.53906263 27.6015008 13.18679471 27.47324499 9.6875 27.3125 C8.75615234 27.28994141 7.82480469 27.26738281 6.86523438 27.24414062 C4.5751604 27.18542078 2.28842125 27.10336858 0 27 C0 25.02 0 23.04 0 21 C0.66 21 1.32 21 2 21 C2 16.05 2 11.1 2 6 C1.34 6 0.68 6 0 6 C0 4.02 0 2.04 0 0 Z " fill="#F8F8F9" transform="translate(121,259)"/>
<path d="M0 0 C0.71671875 -0.01224609 1.4334375 -0.02449219 2.171875 -0.03710938 C6.29448434 -0.04847686 9.59790556 0.20115093 13.25 2.1875 C14.6399408 4.9673816 14.43488204 7.1061326 14.25 10.1875 C13.25 12.5625 13.25 12.5625 12.25 14.1875 C13.24 14.5175 14.23 14.8475 15.25 15.1875 C16.67041821 18.02833641 16.56452272 20.04227278 16.25 23.1875 C14.90234375 25.3671875 14.90234375 25.3671875 12.25 27.1875 C8.65578016 27.68475579 5.11951521 27.56280945 1.5 27.4375 C0.02466797 27.41042969 0.02466797 27.41042969 -1.48046875 27.3828125 C-3.90463783 27.33574126 -6.32682059 27.27000742 -8.75 27.1875 C-8.792721 25.52138095 -8.79063832 23.85367115 -8.75 22.1875 C-8.42 21.8575 -8.09 21.5275 -7.75 21.1875 C-7.64931538 18.75922387 -7.6112824 16.36551589 -7.625 13.9375 C-7.62113281 13.26847656 -7.61726563 12.59945313 -7.61328125 11.91015625 C-7.62058197 8.194091 -7.99990516 4.81523142 -8.75 1.1875 C-6.73100129 -0.83149871 -2.76222841 0.00243154 0 0 Z " fill="#F4F5F7" transform="translate(58.75,258.8125)"/>
<path d="M0 0 C6.79597512 0.89986232 11.25470831 1.90749185 16 7 C21.5680214 16.7097516 21.18084057 28.39453064 21.25 39.3125 C21.26389771 40.67181641 21.26389771 40.67181641 21.27807617 42.05859375 C21.22260991 53.99580428 18.74911097 66.25088903 10 75 C0.89782436 82.1981491 0.89782436 82.1981491 -5 83 C-4.29875 82.319375 -3.5975 81.63875 -2.875 80.9375 C7.38557016 70.58972952 13.3183471 59.54682108 13.41723633 44.65307617 C13.39632935 43.21605347 13.39632935 43.21605347 13.375 41.75 C13.36557373 40.74364502 13.35614746 39.73729004 13.34643555 38.70043945 C13.0521428 24.09953266 10.12875802 10.99693727 0 0 Z " fill="#06447B" transform="translate(242,119)"/>
<path d="M0 0 C-0.26554687 0.93199219 -0.53109375 1.86398438 -0.8046875 2.82421875 C-1.16184666 4.11187152 -1.51859472 5.39963836 -1.875 6.6875 C-2.22304688 7.92886719 -2.57109375 9.17023438 -2.9296875 10.44921875 C-5.46980542 20.59568888 -6.36276698 30.68927055 -6.3125 41.125 C-6.30976074 42.29208496 -6.30702148 43.45916992 -6.30419922 44.66162109 C-6.14703972 57.82147076 -3.90420931 70.21625965 -1 83 C-3.9719385 81.87548273 -6.33440687 80.77706209 -9 79 C-9.69986219 76.52057371 -10.21183575 74.21590147 -10.625 71.6875 C-10.74979736 70.96183838 -10.87459473 70.23617676 -11.00317383 69.48852539 C-14.36205168 49.19484068 -13.76549209 28.32737613 -11 8 C-10.88269531 6.8759375 -10.76539063 5.751875 -10.64453125 4.59375 C-10.43183594 3.7378125 -10.21914063 2.881875 -10 2 C-4.12244898 -1.37414966 -4.12244898 -1.37414966 0 0 Z " fill="#0D477D" transform="translate(66,114)"/>
<path d="M0 0 C6.54973949 4.80314229 9.85108825 12.41654711 11.625 20.125 C11.93444545 23.08919796 12.00502898 26.02096052 12 29 C12.00193359 30.18601807 12.00193359 30.18601807 12.00390625 31.39599609 C11.89345969 37.48687312 10.76552366 41.82536632 7.625 47.125 C6.34855182 43.29565545 7.34852119 41.89015333 8.625 38.125 C9.53150809 29.81885611 8.83802749 22.43303474 4.625 15.125 C1.28772263 11.12026716 -1.71888798 8.47005383 -6.9609375 7.7890625 C-12.98974535 7.70462542 -16.64471675 7.98600216 -21.375 12.125 C-21.9525 12.7025 -22.53 13.28 -23.125 13.875 C-23.5375 14.2875 -23.95 14.7 -24.375 15.125 C-25.035 15.125 -25.695 15.125 -26.375 15.125 C-30.22798845 24.25291311 -29.66026127 33.42611692 -29.375 43.125 C-33.21680534 39.28319466 -32.60745664 34.60976103 -32.625 29.5 C-32.60998709 18.64888078 -30.52829334 10.60046605 -23.375 2.125 C-17.31702041 -3.65338054 -7.17734553 -3.87108271 0 0 Z " fill="#6D7A95" transform="translate(141.375,141.875)"/>
<path d="M0 0 C3.71599191 -0.20086443 4.77208445 -0.1519437 8 2 C10.31268346 9.0931966 10.30778541 16.80457052 10.30078125 24.1953125 C10.30506638 25.22703583 10.3093515 26.25875916 10.31376648 27.32174683 C10.31947061 29.49150871 10.32003923 31.6612897 10.31567383 33.83105469 C10.3125279 37.09604745 10.33597509 40.36011968 10.36132812 43.625 C10.39284153 53.07130122 10.29331269 62.45160989 8.85546875 71.8046875 C8.76413162 72.48636993 8.67279449 73.16805237 8.57868958 73.87039185 C7.86279747 77.77392616 7.0567458 78.95538765 3.8840332 81.44970703 C2.93230225 81.96130371 1.98057129 82.47290039 1 83 C0.34 82.67 -0.32 82.34 -1 82 C-0.72285156 80.80503906 -0.44570313 79.61007813 -0.16015625 78.37890625 C0.20598974 76.77349691 0.5718604 75.16802475 0.9375 73.5625 C1.11990234 72.77939453 1.30230469 71.99628906 1.49023438 71.18945312 C5.9912723 51.30304919 5.32152275 29.90283507 1.36376953 9.99023438 C0.75823526 6.67727103 0.38623814 3.34489729 0 0 Z " fill="#07447B" transform="translate(278,114)"/>
<path d="M0 0 C6.93624703 5.04454329 11.94728754 11.5304515 13.75 20 C14.82005054 29.80138197 14.69259375 39.21807004 9.75 48 C8.75 45 8.75 45 9.6875 42.5625 C12.43323304 33.35621863 10.98700444 24.50152191 6.75 16 C4.22547338 11.98370764 1.19194136 8.77677654 -3.25 7 C-8.13086101 6.33666151 -11.99570675 6.42109542 -16.5 8.5 C-22.93517307 14.35015733 -26.81739476 20.07724094 -27.46484375 28.94140625 C-27.68615123 36.43930374 -26.63935433 42.90304876 -24.25 50 C-29.35729977 45.65367326 -30.81147549 38.37359943 -31.64453125 31.96484375 C-31.99926141 21.99298475 -29.33817663 12.35155419 -22.8671875 4.625 C-16.39892524 -1.87450991 -8.68986926 -2.67380593 0 0 Z " fill="#657490" transform="translate(226.25,141)"/>
<path d="M0 0 C1.99954746 -0.04254356 4.00041636 -0.04080783 6 0 C7 1 7 1 7.11352539 3.22485352 C7.10828857 4.18319092 7.10305176 5.14152832 7.09765625 6.12890625 C7.09443359 7.16337891 7.09121094 8.19785156 7.08789062 9.26367188 C7.07951172 10.35228516 7.07113281 11.44089844 7.0625 12.5625 C7.05798828 13.65498047 7.05347656 14.74746094 7.04882812 15.87304688 C7.03699826 18.58208495 7.02051543 21.29101599 7 24 C7.99 24 8.98 24 10 24 C9.67 25.65 9.34 27.3 9 29 C5.66666667 29 2.33333333 29 -1 29 C-2.155 29.0825 -3.31 29.165 -4.5 29.25 C-8 29 -8 29 -9.6953125 27.36328125 C-11.33746417 24.38872509 -11.40016149 22.32172009 -11.375 18.9375 C-11.38273438 17.89464844 -11.39046875 16.85179687 -11.3984375 15.77734375 C-11 13 -11 13 -9.73828125 11.140625 C-6.63248409 9.10266372 -3.62222906 9.82185759 0 10 C0.33 8.35 0.66 6.7 1 5 C0.34 5 -0.32 5 -1 5 C-0.67 3.35 -0.34 1.7 0 0 Z " fill="#F5F5F7" transform="translate(217,257)"/>
<path d="M0 0 C0.9590625 0.28875 1.918125 0.5775 2.90625 0.875 C3.8653125 1.184375 4.824375 1.49375 5.8125 1.8125 C6.7096875 2.10125 7.606875 2.39 8.53125 2.6875 C10.63143396 3.37869978 12.7244665 4.085555 14.8125 4.8125 C11.10264541 7.28573639 7.62344152 7.88472272 3.30859375 8.8359375 C0.6658133 9.58716522 0.6658133 9.58716522 -0.52734375 11.9140625 C-0.85412109 12.85378906 -0.85412109 12.85378906 -1.1875 13.8125 C0.1325 14.1425 1.4525 14.4725 2.8125 14.8125 C-2.43440283 14.93694307 -7.68042977 15.02723269 -12.9284668 15.0871582 C-14.71019472 15.11216208 -16.49182153 15.14617707 -18.27319336 15.18969727 C-37.29025905 15.64235775 -37.29025905 15.64235775 -44.1875 9.8125 C-40.39863457 8.68487343 -38.69971885 9.1376806 -35.0625 10.75 C-31.73823281 12.31435954 -31.73823281 12.31435954 -28.1875 12.8125 C-29.5075 11.8225 -30.8275 10.8325 -32.1875 9.8125 C-28.5625 6.8125 -28.5625 6.8125 -25.1875 6.8125 C-22.1875 11.03472222 -22.1875 11.03472222 -22.1875 13.8125 C-21.5275 13.8125 -20.8675 13.8125 -20.1875 13.8125 C-21.5075 11.1725 -22.8275 8.5325 -24.1875 5.8125 C-23.1875 4.8125 -23.1875 4.8125 -20.46484375 4.71484375 C-18.81162109 4.73224609 -18.81162109 4.73224609 -17.125 4.75 C-16.02027344 4.75902344 -14.91554688 4.76804688 -13.77734375 4.77734375 C-12.92269531 4.78894531 -12.06804687 4.80054688 -11.1875 4.8125 C-11.07792969 5.37839844 -10.96835938 5.94429687 -10.85546875 6.52734375 C-10.69691406 7.26082031 -10.53835937 7.99429688 -10.375 8.75 C-10.22417969 9.48089844 -10.07335937 10.21179688 -9.91796875 10.96484375 C-9.67691406 11.57457031 -9.43585938 12.18429688 -9.1875 12.8125 C-8.1975 13.1425 -7.2075 13.4725 -6.1875 13.8125 C-7.1775 9.5225 -8.1675 5.2325 -9.1875 0.8125 C-4.78385363 -1.38932319 -4.39537339 -1.35095892 0 0 Z " fill="#0E366D" transform="translate(116.1875,228.1875)"/>
<path d="M0 0 C3.84619141 1.64648438 3.84619141 1.64648438 5.23046875 4.828125 C5.54628906 5.95734375 5.86210937 7.0865625 6.1875 8.25 C6.51105469 9.36890625 6.83460938 10.4878125 7.16796875 11.640625 C11.60998742 29.57553604 10.15385726 51.29614666 2 68 C1.01 68.495 1.01 68.495 0 69 C0.0721875 67.97390625 0.144375 66.9478125 0.21875 65.890625 C0.96209782 54.11477863 1.11172898 42.35742458 1.125 30.5625 C1.12749756 29.79240601 1.12999512 29.02231201 1.13256836 28.22888184 C1.15771249 18.7691587 0.90762687 9.42670774 0 0 Z " fill="#FCC00D" transform="translate(290,119)"/>
<path d="M0 0 C-0.0707373 0.7216333 -0.14147461 1.4432666 -0.21435547 2.18676758 C-1.011765 11.21403205 -1.15378141 20.17020516 -1.13037109 29.22729492 C-1.1250457 31.66656824 -1.1303313 34.10565436 -1.13671875 36.54492188 C-1.14081288 47.39396474 -0.71208843 58.17512042 0 69 C-7.80565947 61.59640588 -8.83856919 48.26879324 -9.22265625 38.0625 C-9.51686163 25.37128733 -9.13189526 12.4639781 -3 1 C-1 0 -1 0 0 0 Z " fill="#FBBE0B" transform="translate(52,119)"/>
<path d="M0 0 C2.97 0.495 2.97 0.495 6 1 C6.05406006 1.55324951 6.10812012 2.10649902 6.16381836 2.67651367 C6.5597821 6.50119109 7.00957991 10.27698152 7.75390625 14.05078125 C11.73217548 34.56569571 11.18308683 55.57429309 7 76 C6.78730469 77.11503906 6.57460938 78.23007813 6.35546875 79.37890625 C5.9278647 81.59075743 5.46956117 83.79667451 5 86 C2.03 86.99 2.03 86.99 -1 88 C-0.81824219 87.1028125 -0.63648438 86.205625 -0.44921875 85.28125 C-0.05582177 83.32838704 0.33668823 81.37531283 0.71606445 79.41967773 C1.3602679 76.10808707 2.0406676 72.83897827 2.8671875 69.56640625 C8.19219902 46.82099992 5.74277734 22.3601756 0 0 Z " fill="#06326B" transform="translate(273,112)"/>
<path d="M0 0 C3.125 1.9375 3.125 1.9375 5 5 C6.02533012 9.72506298 5.65598921 12.92855095 3.125 17.0625 C-1.28025942 19.79376084 -4.94922834 20.00187438 -10 19 C-13.125 17.0625 -13.125 17.0625 -15 14 C-16.02533012 9.27493702 -15.65598921 6.07144905 -13.125 1.9375 C-8.71974058 -0.79376084 -5.05077166 -1.00187438 0 0 Z " fill="#F2F2F5" transform="translate(94,267)"/>
<path d="M0 0 C1.32 0 2.64 0 4 0 C3.72285156 1.14597656 3.44570312 2.29195313 3.16015625 3.47265625 C2.79410461 5.0025644 2.42822853 6.53251457 2.0625 8.0625 C1.88009766 8.81466797 1.69769531 9.56683594 1.50976562 10.34179688 C1.24389648 11.45844727 1.24389648 11.45844727 0.97265625 12.59765625 C0.81031494 13.27320557 0.64797363 13.94875488 0.48071289 14.64477539 C-1.26506794 23.19812616 -1.32387901 31.74830336 -1.375 40.4375 C-1.38022675 41.21168274 -1.38545349 41.98586548 -1.39083862 42.7835083 C-1.43158977 55.87900066 0.00227496 68.09718417 3.42749023 80.78466797 C4.0453045 83.17530619 4.53489218 85.57546203 5 88 C3.02 87.34 1.04 86.68 -1 86 C-1.70920506 82.67219163 -2.36320484 79.34220975 -3 76 C-3.12842285 75.3719043 -3.2568457 74.74380859 -3.38916016 74.09667969 C-8.42413848 49.11888688 -6.7581854 24.44450039 0 0 Z " fill="#06326B" transform="translate(65,112)"/>
<path d="M0 0 C-0.99 4.29 -1.98 8.58 -3 13 C-2.01 13 -1.02 13 0 13 C0.66 10.03 1.32 7.06 2 4 C3.60379341 3.94583812 5.20811406 3.90713362 6.8125 3.875 C7.70582031 3.85179687 8.59914062 3.82859375 9.51953125 3.8046875 C12 4 12 4 15 6 C13.7487173 9.11438163 12.38964705 11.61867478 10 14 C6.1977759 15.01412645 2.58906715 14.75960524 -1.3125 14.5 C-2.33923828 14.46390625 -3.36597656 14.4278125 -4.42382812 14.390625 C-6.95304545 14.29651459 -9.4745974 14.16524592 -12 14 C-10.68 13.67 -9.36 13.34 -8 13 C-8.33 11.68 -8.66 10.36 -9 9 C-17.415 7.02 -17.415 7.02 -26 5 C-22.52819555 2.6854637 -19.00204877 1.55044236 -15.0625 0.3125 C-14.34642578 0.07466797 -13.63035156 -0.16316406 -12.89257812 -0.40820312 C-7.56336463 -2.09241239 -5.12248248 -1.70749416 0 0 Z " fill="#06316A" transform="translate(235,229)"/>
<path d="M0 0 C2.33294775 -0.04241723 4.66702567 -0.04092937 7 0 C8.81115956 1.81115956 8.38199448 4.61278227 8.5625 7.0625 C8.64628906 8.16722656 8.73007813 9.27195312 8.81640625 10.41015625 C8.87699219 11.26480469 8.93757812 12.11945313 9 13 C10.32 13.33 11.64 13.66 13 14 C13.33 11.03 13.66 8.06 14 5 C13.01 4.67 12.02 4.34 11 4 C11.33 2.68 11.66 1.36 12 0 C15.3 0 18.6 0 22 0 C22 1.65 22 3.3 22 5 C21.34 5 20.68 5 20 5 C20 7.97 20 10.94 20 14 C20.66 14 21.32 14 22 14 C22 15.65 22 17.3 22 19 C18.66666667 19 15.33333333 19 12 19 C11.34902344 19.02320313 10.69804687 19.04640625 10.02734375 19.0703125 C8.01878006 19.12287305 6.00823958 19.06375364 4 19 C2 17 2 17 1.8046875 14.1796875 C1.83949219 12.54386719 1.83949219 12.54386719 1.875 10.875 C1.89304688 9.77929688 1.91109375 8.68359375 1.9296875 7.5546875 C1.96449219 6.29011719 1.96449219 6.29011719 2 5 C1.01 4.67 0.02 4.34 -1 4 C-0.67 2.68 -0.34 1.36 0 0 Z " fill="#F3F4F6" transform="translate(150,267)"/>
<path d="M0 0 C2.6875 1.5625 2.6875 1.5625 4 4 C4.25 7.75 4.25 7.75 4 11 C-0.29 11 -4.58 11 -9 11 C-6.43247515 14.17793774 -6.43247515 14.17793774 -3.73828125 14.29296875 C-2.53751953 14.24076172 -2.53751953 14.24076172 -1.3125 14.1875 C-0.10013672 14.14689453 -0.10013672 14.14689453 1.13671875 14.10546875 C1.75160156 14.07066406 2.36648437 14.03585937 3 14 C3 15.32 3 16.64 3 18 C-1.36414583 19.45471528 -5.44367604 19.60944461 -10 19 C-13.125 17.125 -13.125 17.125 -15 14 C-15.81811029 9.43774532 -15.77622908 5.55245815 -13.6875 1.375 C-9.26600493 -0.88716027 -4.85086629 -0.71401218 0 0 Z " fill="#F7F7F9" transform="translate(246,267)"/>
<path d="M0 0 C2.04174058 0.31201674 4.08338913 0.62463569 6.125 0.9375 C7.83042969 1.19853516 7.83042969 1.19853516 9.5703125 1.46484375 C11.66036539 1.79096818 13.7475168 2.13765461 15.82788086 2.52075195 C21.34096043 3.35367546 26.87117402 3.23499347 32.4375 3.25 C33.68982422 3.25394775 34.94214844 3.25789551 36.23242188 3.26196289 C44.24614732 3.21153922 51.57477496 2.61164579 59.3125 0.55859375 C62 0 62 0 66 1 C62.04 2.65 58.08 4.3 54 6 C55.98 6.33 57.96 6.66 60 7 C60 7.33 60 7.66 60 8 C42.18 8 24.36 8 6 8 C6 7.67 6 7.34 6 7 C7.65 6.67 9.3 6.34 11 6 C7.37 4.35 3.74 2.7 0 1 C0 0.67 0 0.34 0 0 Z " fill="#0D3269" transform="translate(138,235)"/>
<path d="M0 0 C0.9796875 0.01417969 1.959375 0.02835937 2.96875 0.04296875 C3.9484375 0.04941406 4.928125 0.05585938 5.9375 0.0625 C8.46875 0.23046875 8.46875 0.23046875 10.46875 1.23046875 C10.13875 2.88046875 9.80875 4.53046875 9.46875 6.23046875 C8.14875 6.23046875 6.82875 6.23046875 5.46875 6.23046875 C5.46875 5.57046875 5.46875 4.91046875 5.46875 4.23046875 C4.14875 4.23046875 2.82875 4.23046875 1.46875 4.23046875 C1.46875 5.22046875 1.46875 6.21046875 1.46875 7.23046875 C2.5825 7.35421875 3.69625 7.47796875 4.84375 7.60546875 C8.46875 8.23046875 8.46875 8.23046875 10.46875 10.23046875 C10.78125 13.73046875 10.78125 13.73046875 10.46875 17.23046875 C7.10523987 19.47280884 5.84564944 19.5014509 1.90625 19.48046875 C0.93558594 19.485625 -0.03507812 19.49078125 -1.03515625 19.49609375 C-3.53125 19.23046875 -3.53125 19.23046875 -5.53125 17.23046875 C-5.15625 14.60546875 -5.15625 14.60546875 -4.53125 12.23046875 C-2.55125 12.72546875 -2.55125 12.72546875 -0.53125 13.23046875 C-0.53125 13.89046875 -0.53125 14.55046875 -0.53125 15.23046875 C1.11875 15.23046875 2.76875 15.23046875 4.46875 15.23046875 C4.46875 14.24046875 4.46875 13.25046875 4.46875 12.23046875 C3.90285156 12.09769531 3.33695312 11.96492188 2.75390625 11.828125 C2.02042969 11.65152344 1.28695313 11.47492188 0.53125 11.29296875 C-0.19964844 11.11894531 -0.93054688 10.94492187 -1.68359375 10.765625 C-3.53125 10.23046875 -3.53125 10.23046875 -4.53125 9.23046875 C-4.71875 5.79296875 -4.71875 5.79296875 -4.53125 2.23046875 C-2.53125 0.23046875 -2.53125 0.23046875 0 0 Z " fill="#F3F3F6" transform="translate(281.53125,266.76953125)"/>
<path d="M0 0 C1.2065625 0.0309375 1.2065625 0.0309375 2.4375 0.0625 C2.4375 2.0425 2.4375 4.0225 2.4375 6.0625 C4.0875 6.3925 5.7375 6.7225 7.4375 7.0625 C7.1075 8.3825 6.7775 9.7025 6.4375 11.0625 C5.1175 11.0625 3.7975 11.0625 2.4375 11.0625 C2.7675 13.7025 3.0975 16.3425 3.4375 19.0625 C5.0875 19.3925 6.7375 19.7225 8.4375 20.0625 C8.1075 21.7125 7.7775 23.3625 7.4375 25.0625 C-0.0082732 25.42868557 -0.0082732 25.42868557 -2.3125 23.90625 C-4.06064698 21.32773321 -3.85877565 19.45697672 -3.75 16.375 C-3.72292969 15.38113281 -3.69585937 14.38726562 -3.66796875 13.36328125 C-3.63316406 12.60402344 -3.59835938 11.84476562 -3.5625 11.0625 C-4.5525 10.7325 -5.5425 10.4025 -6.5625 10.0625 C-6.5625 8.7425 -6.5625 7.4225 -6.5625 6.0625 C-5.5725 6.0625 -4.5825 6.0625 -3.5625 6.0625 C-3.583125 5.258125 -3.60375 4.45375 -3.625 3.625 C-3.54067676 0.16774696 -3.45725304 0.08432324 0 0 Z " fill="#F2F2F5" transform="translate(108.5625,260.9375)"/>
<path d="M0 0 C1.99954746 -0.04254356 4.00041636 -0.04080783 6 0 C7 1 7 1 7.11352539 3.22485352 C7.10828857 4.18319092 7.10305176 5.14152832 7.09765625 6.12890625 C7.09443359 7.16337891 7.09121094 8.19785156 7.08789062 9.26367188 C7.07951172 10.35228516 7.07113281 11.44089844 7.0625 12.5625 C7.05798828 13.65498047 7.05347656 14.74746094 7.04882812 15.87304688 C7.03699826 18.58208495 7.02051543 21.29101599 7 24 C7.99 24 8.98 24 10 24 C9.67 25.65 9.34 27.3 9 29 C6.03 29 3.06 29 0 29 C-0.33 27.35 -0.66 25.7 -1 24 C-0.34 24 0.32 24 1 24 C1 17.73 1 11.46 1 5 C0.34 5 -0.32 5 -1 5 C-0.67 3.35 -0.34 1.7 0 0 Z " fill="#EFEFF3" transform="translate(192,257)"/>
<path d="M0 0 C2.81256281 -0.02684312 5.62487241 -0.04676188 8.4375 -0.0625 C9.23994141 -0.07087891 10.04238281 -0.07925781 10.86914062 -0.08789062 C12.91295221 -0.0965143 14.95683902 -0.0522815 17 0 C18 1 18 1 18.0625 3.5625 C18.041875 4.366875 18.02125 5.17125 18 6 C16.35 6.33 14.7 6.66 13 7 C13 6.01 13 5.02 13 4 C10.92064793 4.4100567 10.92064793 4.4100567 9 6 C8.31209578 8.69658452 8.18053536 11.2017019 8 14 C8.66 14 9.32 14 10 14 C10 15.65 10 17.3 10 19 C6.7 19 3.4 19 0 19 C0 17.35 0 15.7 0 14 C0.66 14 1.32 14 2 14 C2 11.03 2 8.06 2 5 C1.34 5 0.68 5 0 5 C0 3.35 0 1.7 0 0 Z " fill="#FAFAFB" transform="translate(255,267)"/>
<path d="M0 0 C0.33 0 0.66 0 1 0 C2.71753538 8.9878793 3.34159506 17.79156205 3.57006836 26.92651367 C3.5985083 27.79896729 3.62694824 28.6714209 3.65625 29.5703125 C3.67494141 30.35164551 3.69363281 31.13297852 3.71289062 31.93798828 C3.89039977 34.30647534 3.89039977 34.30647534 6 37 C8.27620001 37.45861171 8.27620001 37.45861171 10.95288086 37.38818359 C11.98412582 37.39764008 13.01537079 37.40709656 14.0778656 37.4168396 C15.19556839 37.41076691 16.31327118 37.40469421 17.46484375 37.3984375 C18.60909317 37.40130768 19.75334259 37.40417786 20.93226624 37.40713501 C23.35580947 37.40917949 25.77936905 37.40362297 28.20288086 37.39111328 C31.91883185 37.37508055 35.63369263 37.39094236 39.34960938 37.41015625 C41.70052324 37.4081736 44.05143643 37.40432947 46.40234375 37.3984375 C48.07586159 37.40754654 48.07586159 37.40754654 49.78318787 37.4168396 C50.81758499 37.40738312 51.85198212 37.39792664 52.91772461 37.38818359 C53.82880478 37.38579681 54.73988495 37.38341003 55.67857361 37.38095093 C58.41373275 36.93210559 59.29430792 36.12892877 61 34 C61.33 34.99 61.66 35.98 62 37 C58.89126565 39.73524503 56.95343045 40.37729829 52.8359375 40.38818359 C51.80807129 40.39764008 50.78020508 40.40709656 49.72119141 40.4168396 C48.61694824 40.41076691 47.51270508 40.40469421 46.375 40.3984375 C45.23595215 40.40130768 44.0969043 40.40417786 42.92333984 40.40713501 C40.51594546 40.4091758 38.1085345 40.40364493 35.70117188 40.39111328 C32.01394613 40.37506072 28.3278166 40.39096238 24.640625 40.41015625 C22.30208091 40.40817382 19.9635375 40.40433016 17.625 40.3984375 C15.96863525 40.40754654 15.96863525 40.40754654 14.27880859 40.4168396 C13.25094238 40.40738312 12.22307617 40.39792664 11.1640625 40.38818359 C9.80982178 40.38460342 9.80982178 40.38460342 8.42822266 40.38095093 C5.49337584 39.92051843 4.13500515 39.04111556 2 37 C1.12364315 34.37092946 0.834299 32.64675532 0.71875 29.9375 C0.68185059 29.14545166 0.64495117 28.35340332 0.60693359 27.53735352 C0.57164551 26.70002686 0.53635742 25.8627002 0.5 25 C0.21011561 18.68159396 -0.16759038 12.41339451 -0.9140625 6.12890625 C-1.00468492 3.8839418 -0.65315593 2.1398168 0 0 Z " fill="#222444" transform="translate(139,66)"/>
<path d="M0 0 C0.9590625 0.28875 1.918125 0.5775 2.90625 0.875 C3.8653125 1.184375 4.824375 1.49375 5.8125 1.8125 C6.7096875 2.10125 7.606875 2.39 8.53125 2.6875 C10.63143396 3.37869978 12.7244665 4.085555 14.8125 4.8125 C11.10264541 7.28573639 7.62344152 7.88472272 3.30859375 8.8359375 C0.6658133 9.58716522 0.6658133 9.58716522 -0.52734375 11.9140625 C-0.74519531 12.54054687 -0.96304688 13.16703125 -1.1875 13.8125 C-2.8375 13.8125 -4.4875 13.8125 -6.1875 13.8125 C-7.1775 9.5225 -8.1675 5.2325 -9.1875 0.8125 C-4.78385363 -1.38932319 -4.39537339 -1.35095892 0 0 Z " fill="#06326B" transform="translate(116.1875,228.1875)"/>
<path d="M0 0 C0.66 0 1.32 0 2 0 C1.55238491 4.62535597 0.98878473 9.06181477 -0.01953125 13.59765625 C-1.17169263 19.27436377 -1.34202402 24.78329094 -1.3125 30.5625 C-1.31165405 32.12436035 -1.31165405 32.12436035 -1.31079102 33.71777344 C-1.22606178 40.92363464 -0.53378727 47.78659594 1.02026367 54.82250977 C1.76372351 58.19760193 2.25398877 60.71139369 1 64 C-7.41775467 43.24165352 -7.22398257 21.07518393 0 0 Z " fill="#EFC958" transform="translate(48,121)"/>
<path d="M0 0 C4.46044566 6.69066848 4.36243711 15.35765524 4.3125 23.1875 C4.30831055 24.09806152 4.30412109 25.00862305 4.29980469 25.94677734 C4.10181843 37.92073364 1.5428471 48.90807383 -3 60 C-4.32657025 56.02028925 -3.41023861 52.81790569 -2.625 48.8125 C-0.95069217 40.03013531 0.17490714 31.64447065 0.125 22.6875 C0.1237915 21.85806885 0.12258301 21.0286377 0.12133789 20.17407227 C0.08673505 14.71800334 -0.19424063 9.3517501 -0.87890625 3.93359375 C-1 2 -1 2 0 0 Z " fill="#F1CA56" transform="translate(295,127)"/>
<path d="M0 0 C13.15852535 3.1860209 24.91494431 8.21468182 36 16 C36.495 16.99 36.495 16.99 37 18 C33.01078748 16.72321664 29.20418769 15.25557059 25.375 13.5625 C17.20488339 10.12191673 8.8029268 8.00033259 0 7 C0 4.69 0 2.38 0 0 Z " fill="#F9BC09" transform="translate(204,67)"/>
<path d="M0 0 C2.47067185 1.07359365 3.93896286 2.21748139 6 4 C4 5 4 5 2.375 4.5625 C-2.39756773 3.43215501 -6.53295085 3.50120329 -11.125 5.0625 C-15.89100473 8.27437275 -19.8452956 12.61323901 -22 18 C-22.28480806 20.0742625 -22.48874224 22.16071439 -22.625 24.25 C-22.69976562 25.32765625 -22.77453125 26.4053125 -22.8515625 27.515625 C-22.90054688 28.33546875 -22.94953125 29.1553125 -23 30 C-25.64242277 27.35757723 -25.29852198 26.05587947 -25.3125 22.375 C-25.18701217 17.12333427 -25.05396552 12.41971408 -22 8 C-14.94551223 1.35896207 -9.7113108 -1.0517172 0 0 Z " fill="#EFF1F3" transform="translate(137,149)"/>
<path d="M0 0 C1.32 0 2.64 0 4 0 C5.4606285 2.64738916 6 3.89448334 6 7 C7.98 5.35 9.96 3.7 12 2 C13.32 2.66 14.64 3.32 16 4 C15.690625 4.680625 15.38125 5.36125 15.0625 6.0625 C13.86629351 9.36965912 13.40994603 12.51545878 13 16 C11.35 16 9.7 16 8 16 C8.33 14.02 8.66 12.04 9 10 C8.01 10.66 7.02 11.32 6 12 C5.01 11.01 4.02 10.02 3 9 C3 10.65 3 12.3 3 14 C1.35 14 -0.3 14 -2 14 C-1.34 9.38 -0.68 4.76 0 0 Z " fill="#FDFEFC" transform="translate(201,5)"/>
<path d="M0 0 C2.64 0 5.28 0 8 0 C8 4.62 8 9.24 8 14 C8.99 14 9.98 14 11 14 C10.67 15.65 10.34 17.3 10 19 C7.03 19 4.06 19 1 19 C0.67 17.35 0.34 15.7 0 14 C0.99 14 1.98 14 3 14 C3 11.03 3 8.06 3 5 C2.01 4.67 1.02 4.34 0 4 C0 2.68 0 1.36 0 0 Z " fill="#F9FAFB" transform="translate(177,267)"/>
<path d="M0 0 C1.16764893 -0.0009668 1.16764893 -0.0009668 2.35888672 -0.00195312 C8.79160003 0.05641755 14.9601304 0.8061953 21.25 2.1875 C21.25 2.5175 21.25 2.8475 21.25 3.1875 C20.43958252 3.20731934 19.62916504 3.22713867 18.79418945 3.24755859 C15.72056366 3.32673404 12.64725823 3.41344504 9.57397461 3.50488281 C7.61652645 3.56095245 5.65884599 3.60871922 3.70117188 3.65625 C-8.03092994 4.01448212 -19.28593828 5.75494514 -30.75 8.1875 C-30.42 6.8675 -30.09 5.5475 -29.75 4.1875 C-27.75127261 3.70305236 -25.75094063 3.2252234 -23.75 2.75 C-22.63625 2.48316406 -21.5225 2.21632812 -20.375 1.94140625 C-13.55199324 0.5223973 -6.94735674 -0.00602154 0 0 Z " fill="#B98E18" transform="translate(170.75,60.8125)"/>
<path d="M0 0 C0 2.97 0 5.94 0 9 C-8.25 9.99 -16.5 10.98 -25 12 C-22.45003683 9.45003683 -21.19499054 8.42551537 -18.09375 6.9921875 C-17.34996094 6.64542969 -16.60617188 6.29867187 -15.83984375 5.94140625 C-15.06769531 5.58949219 -14.29554687 5.23757812 -13.5 4.875 C-12.34177734 4.33552734 -12.34177734 4.33552734 -11.16015625 3.78515625 C-2.9802493 0 -2.9802493 0 0 0 Z " fill="#FBD258" transform="translate(140,81)"/>
<path d="M0 0 C1.60379341 -0.05416188 3.20811406 -0.09286638 4.8125 -0.125 C5.70582031 -0.14820313 6.59914062 -0.17140625 7.51953125 -0.1953125 C10 0 10 0 13 2 C11.7487173 5.11438163 10.38964705 7.61867478 8 10 C4.1977759 11.01412645 0.58906715 10.75960524 -3.3125 10.5 C-4.33923828 10.46390625 -5.36597656 10.4278125 -6.42382812 10.390625 C-8.95304545 10.29651459 -11.4745974 10.16524592 -14 10 C-14 9.67 -14 9.34 -14 9 C-10.04 9 -6.08 9 -2 9 C-1.34 6.03 -0.68 3.06 0 0 Z " fill="#0C4379" transform="translate(237,233)"/>
<path d="M0 0 C2.4375 0.9375 2.4375 0.9375 4 3 C4.56012915 6.10092115 4.55445043 8.89854291 4 12 C2.5 14.0625 2.5 14.0625 0 15 C-2.72038436 15.21804607 -5.26012239 15.13699388 -8 15 C-9.04976964 11.85069107 -9.10131595 9.61185544 -9.0625 6.3125 C-9.05347656 5.31863281 -9.04445312 4.32476562 -9.03515625 3.30078125 C-9.02355469 2.54152344 -9.01195312 1.78226562 -9 1 C-5.94306678 -0.52846661 -3.37015453 -0.23242445 0 0 Z M-5 3 C-5 5.97 -5 8.94 -5 12 C-2.58354218 12.16687448 -2.58354218 12.16687448 0 12 C0.66 11.34 1.32 10.68 2 10 C1.81242938 6.17435335 1.81242938 6.17435335 0 3 C-1.66617115 2.95936168 -3.33388095 2.957279 -5 3 Z " fill="#FBFCFD" transform="translate(172,2)"/>
<path d="M0 0 C1.32 0.33 2.64 0.66 4 1 C6.89033629 11.85260994 6.22142039 23.06186033 6.125 34.1875 C6.11495176 36.20897995 6.10582916 38.23046472 6.09765625 40.25195312 C6.07578514 45.16808936 6.04135645 50.08399065 6 55 C5.67 55 5.34 55 5 55 C4.95512451 53.93789307 4.91024902 52.87578613 4.86401367 51.78149414 C4.69077733 47.7532679 4.50254575 43.72584641 4.31030273 39.69848633 C4.22986053 37.97177757 4.15322032 36.24488651 4.08081055 34.51782227 C3.58561993 22.78692741 2.3468486 11.50860243 0 0 Z " fill="#46709A" transform="translate(282,115)"/>
<path d="M0 0 C0 0.33 0 0.66 0 1 C-8.25 1 -16.5 1 -25 1 C-24.67 0.01 -24.34 -0.98 -24 -2 C-15.08238018 -6.30505785 -8.09716023 -5.12269321 0 0 Z " fill="#F2CC5C" transform="translate(144,242)"/>
<path d="M0 0 C1.66796875 1.7421875 1.66796875 1.7421875 3.1875 3.875 C3.69667969 4.57367188 4.20585938 5.27234375 4.73046875 5.9921875 C6 8 6 8 7 11 C5.68 11.33 4.36 11.66 3 12 C2.67 10.68 2.34 9.36 2 8 C0.02 8.99 0.02 8.99 -2 10 C-1.67 10.99 -1.34 11.98 -1 13 C-2.65 13.66 -4.3 14.32 -6 15 C-5.98839844 14.16855469 -5.97679688 13.33710938 -5.96484375 12.48046875 C-5.95582031 11.39378906 -5.94679688 10.30710937 -5.9375 9.1875 C-5.92589844 8.10855469 -5.91429688 7.02960937 -5.90234375 5.91796875 C-5.86375234 2.93487831 -5.86375234 2.93487831 -7 0 C-3.83176932 -1.05607689 -3.00112416 -1.20044967 0 0 Z M-3 3 C-3 3.99 -3 4.98 -3 6 C-2.34 6 -1.68 6 -1 6 C-1.33 5.01 -1.66 4.02 -2 3 C-2.33 3 -2.66 3 -3 3 Z " fill="#FDFEFC" transform="translate(117,12)"/>
<path d="M0 0 C2.43263795 1.64250948 3.36105857 3.1960175 4.734375 5.77734375 C5.16234375 6.55980469 5.5903125 7.34226562 6.03125 8.1484375 C6.984375 10.33984375 6.984375 10.33984375 6.984375 13.33984375 C5.664375 13.33984375 4.344375 13.33984375 2.984375 13.33984375 C2.654375 12.34984375 2.324375 11.35984375 1.984375 10.33984375 C0.994375 10.33984375 0.004375 10.33984375 -1.015625 10.33984375 C-1.015625 11.65984375 -1.015625 12.97984375 -1.015625 14.33984375 C-2.665625 14.33984375 -4.315625 14.33984375 -6.015625 14.33984375 C-5.025625 10.37984375 -4.035625 6.41984375 -3.015625 2.33984375 C-3.675625 2.33984375 -4.335625 2.33984375 -5.015625 2.33984375 C-5.015625 1.67984375 -5.015625 1.01984375 -5.015625 0.33984375 C-2.015625 -0.66015625 -2.015625 -0.66015625 0 0 Z M-1.015625 4.33984375 C-1.015625 5.32984375 -1.015625 6.31984375 -1.015625 7.33984375 C-0.355625 7.33984375 0.304375 7.33984375 0.984375 7.33984375 C0.654375 6.34984375 0.324375 5.35984375 -0.015625 4.33984375 C-0.345625 4.33984375 -0.675625 4.33984375 -1.015625 4.33984375 Z " fill="#FDFEFC" transform="translate(151.015625,3.66015625)"/>
<path d="M0 0 C1.64501168 0.69737818 3.25841157 1.46854449 4.86328125 2.25390625 C4.86328125 2.91390625 4.86328125 3.57390625 4.86328125 4.25390625 C-3.38671875 4.25390625 -11.63671875 4.25390625 -20.13671875 4.25390625 C-18.81671875 3.26390625 -17.49671875 2.27390625 -16.13671875 1.25390625 C-15.41484375 0.67640625 -14.69296875 0.09890625 -13.94921875 -0.49609375 C-9.27043643 -2.57555256 -4.75001096 -1.65859615 0 0 Z " fill="#F0C33D" transform="translate(218.13671875,238.74609375)"/>
<path d="M0 0 C1.62418745 -0.08090971 3.24951745 -0.13914995 4.875 -0.1875 C5.77992188 -0.22230469 6.68484375 -0.25710937 7.6171875 -0.29296875 C8.79667969 -0.14794922 8.79667969 -0.14794922 10 0 C10.66 0.99 11.32 1.98 12 3 C8.71023192 4.09658936 7.28696233 3.79953138 4 3 C4 3.66 4 4.32 4 5 C4.99 5.33 5.98 5.66 7 6 C7 6.66 7 7.32 7 8 C5.68 8 4.36 8 3 8 C3 9.32 3 10.64 3 12 C6.465 11.505 6.465 11.505 10 11 C10 12.32 10 13.64 10 15 C6.37 14.67 2.74 14.34 -1 14 C-1 11.06406867 -0.77500573 8.23443584 -0.5 5.3125 C-0.4071875 4.31863281 -0.314375 3.32476562 -0.21875 2.30078125 C-0.11046875 1.16189453 -0.11046875 1.16189453 0 0 Z " fill="#FDFEFC" transform="translate(183,3)"/>
<path d="M0 0 C0.99 0 1.98 0 3 0 C2.0940193 5.88136281 -0.78457639 10.21656855 -3.8125 15.25 C-4.34681641 16.17296875 -4.88113281 17.0959375 -5.43164062 18.046875 C-5.95564453 18.9234375 -6.47964844 19.8 -7.01953125 20.703125 C-7.73266479 21.90437012 -7.73266479 21.90437012 -8.46020508 23.12988281 C-10.23717346 25.28805276 -11.27250494 25.65194975 -14 26 C-12.3851768 19.96196541 -9.2493285 14.93764395 -6.0625 9.625 C-5.25522461 8.23474609 -5.25522461 8.23474609 -4.43164062 6.81640625 C-3.90892578 5.94113281 -3.38621094 5.06585938 -2.84765625 4.1640625 C-2.37336182 3.36436035 -1.89906738 2.5646582 -1.41040039 1.74072266 C-0.94496826 1.16628418 -0.47953613 0.5918457 0 0 Z " fill="#F6F5F2" transform="translate(32,274)"/>
<path d="M0 0 C2.0625 0.4375 2.0625 0.4375 4 1 C4.33 2.98 4.66 4.96 5 7 C5.66 7 6.32 7 7 7 C7.33 5.68 7.66 4.36 8 3 C9.9375 3.375 9.9375 3.375 12 4 C12.33 4.66 12.66 5.32 13 6 C12.50628906 6.30292969 12.01257813 6.60585937 11.50390625 6.91796875 C7.30102785 9.548514 7.30102785 9.548514 5.0625 13.8125 C5.041875 14.534375 5.02125 15.25625 5 16 C3.35 15.67 1.7 15.34 0 15 C0.20625 13.989375 0.4125 12.97875 0.625 11.9375 C1.0471494 7.50493131 0.4359485 5.13891038 -1 1 C-0.67 0.67 -0.34 0.34 0 0 Z " fill="#FDFEFB" transform="translate(223,9)"/>
<path d="M0 0 C1.32 2.64 2.64 5.28 4 8 C-5.01128257 8.57682463 -11.58528184 8.49238382 -19 3 C-15.33143866 1.64348546 -13.38336007 2.38230158 -9.875 3.9375 C-6.55073281 5.50185954 -6.55073281 5.50185954 -3 6 C-4.32 5.01 -5.64 4.02 -7 3 C-3.375 0 -3.375 0 0 0 Z " fill="#1D5082" transform="translate(91,235)"/>
<path d="M0 0 C0.33 1.32 0.66 2.64 1 4 C-1.31 4 -3.62 4 -6 4 C-5.67 6.31 -5.34 8.62 -5 11 C-2.36 11 0.28 11 3 11 C1 14 1 14 -1.8125 15 C-5 15 -5 15 -7.875 12.9375 C-10 10 -10 10 -10.5625 6.9375 C-9.36335177 0.67528147 -5.99291971 -0.54481088 0 0 Z " fill="#FEFEFB" transform="translate(137,6)"/>
<path d="M0 0 C0.99 0.33 1.98 0.66 3 1 C1.29367636 3.9720746 -0.44376137 6.92474645 -2.1875 9.875 C-2.67025391 10.71675781 -3.15300781 11.55851562 -3.65039062 12.42578125 C-4.13056641 13.23144531 -4.61074219 14.03710938 -5.10546875 14.8671875 C-5.54012451 15.61081543 -5.97478027 16.35444336 -6.42260742 17.12060547 C-8.3661984 19.43630944 -10.15480527 20.09004089 -13 21 C-11.36294751 16.4091354 -9.00531362 12.40417818 -6.5 8.25 C-6.09652344 7.56550781 -5.69304687 6.88101563 -5.27734375 6.17578125 C-2.24553571 1.12276786 -2.24553571 1.12276786 0 0 Z " fill="#F5F4F3" transform="translate(320,249)"/>
<path d="M0 0 C-0.69972742 5.13357715 -1.5655478 10.21711256 -2.5 15.3125 C-3.62331899 21.5336989 -4.49939729 27.69240586 -5 34 C-5.33 34 -5.66 34 -6 34 C-6.4375 9.62152778 -6.4375 9.62152778 -4 1 C-2 0 -2 0 0 0 Z " fill="#577FA5" transform="translate(60,115)"/>
<path d="M0 0 C0.66 0.99 1.32 1.98 2 3 C-2.94940857 7.14424162 -8.34334725 6.28699997 -14.42578125 6.07421875 C-15.52850876 6.04777786 -16.63123627 6.02133698 -17.76737976 5.99409485 C-21.28297814 5.90645594 -24.79752952 5.79726027 -28.3125 5.6875 C-30.69853041 5.62422853 -33.08459855 5.56236291 -35.47070312 5.50195312 C-41.31433755 5.3509348 -47.15725987 5.18222253 -53 5 C-53 4.67 -53 4.34 -53 4 C-52.36550934 3.99413376 -51.73101868 3.98826752 -51.07730103 3.98222351 C-44.49133974 3.91843848 -37.9058739 3.83405833 -31.3203125 3.73754883 C-28.86041788 3.70423234 -26.40044558 3.67622164 -23.94042969 3.65356445 C-20.4104695 3.62014219 -16.88122566 3.56783234 -13.3515625 3.51171875 C-12.24632233 3.50532883 -11.14108215 3.4989389 -10.00234985 3.49235535 C-8.98144257 3.47256119 -7.96053528 3.45276703 -6.90869141 3.43237305 C-5.55633896 3.41571846 -5.55633896 3.41571846 -4.17666626 3.39872742 C-3.45836639 3.26714737 -2.74006653 3.13556732 -2 3 C-1.34 2.01 -0.68 1.02 0 0 Z " fill="#403839" transform="translate(199,100)"/>
<path d="M0 0 C2.375 -0.125 2.375 -0.125 5 0 C7 2 7 2 7.25 4.5 C7 7 7 7 5 9 C0.44444444 8.44444444 0.44444444 8.44444444 -1 7 C-0.71269945 4.66055264 -0.38063221 2.3260857 0 0 Z " fill="#121B52" transform="translate(86,272)"/>
<path d="M0 0 C0.33 0 0.66 0 1 0 C1.12738861 7.21868766 0.96466452 14.41488137 0.625 21.625 C0.59414307 22.41890137 0.56328613 23.21280273 0.53149414 24.03076172 C0.23322126 29.76677874 0.23322126 29.76677874 -2 32 C-2.05898369 28.54174064 -2.09392131 25.0836138 -2.125 21.625 C-2.14175781 20.65949219 -2.15851563 19.69398437 -2.17578125 18.69921875 C-2.21924836 12.22261957 -1.53232671 6.293423 0 0 Z " fill="#23264A" transform="translate(202,70)"/>
<path d="M0 0 C2.97 0 5.94 0 9 0 C9.38218767 1.65614657 9.71395102 3.32457024 10 5 C9 6 9 6 6.93359375 6.09765625 C6.10988281 6.08605469 5.28617188 6.07445312 4.4375 6.0625 C3.61121094 6.05347656 2.78492188 6.04445313 1.93359375 6.03515625 C1.29550781 6.02355469 0.65742188 6.01195312 0 6 C0 4.02 0 2.04 0 0 Z " fill="#2D3465" transform="translate(129,275)"/>
<path d="M0 0 C2.64 0 5.28 0 8 0 C8.38218767 1.65614657 8.71395102 3.32457024 9 5 C8 6 8 6 6.15234375 6.09765625 C4.1015625 6.06510417 2.05078125 6.03255208 0 6 C0 4.02 0 2.04 0 0 Z " fill="#20285C" transform="translate(59,275)"/>
<path d="M0 0 C1.67542976 0.28604898 3.34385343 0.61781233 5 1 C5 3.31 5 5.62 5 8 C3.34385343 8.38218767 1.67542976 8.71395102 0 9 C-1 8 -1 8 -1.125 4.5 C-1 1 -1 1 0 0 Z " fill="#0C154D" transform="translate(213,272)"/>
<path d="M0 0 C2.31 0 4.62 0 7 0 C7.38218767 1.65614657 7.71395102 3.32457024 8 5 C7 6 7 6 3.4375 6.0625 C2.303125 6.041875 1.16875 6.02125 0 6 C0 4.02 0 2.04 0 0 Z " fill="#2F3767" transform="translate(129,264)"/>
<path d="M0 0 C1.32 0.33 2.64 0.66 4 1 C4.84023188 5.35332736 5.10770995 9.44442519 5.0625 13.875 C5.05347656 15.02742187 5.04445313 16.17984375 5.03515625 17.3671875 C5.02355469 18.23601562 5.01195312 19.10484375 5 20 C3.14817905 17.22226858 2.6658319 16.11616555 2.1484375 12.98828125 C2.01953125 12.23095703 1.890625 11.47363281 1.7578125 10.69335938 C1.63148438 9.90767578 1.50515625 9.12199219 1.375 8.3125 C1.2409375 7.51521484 1.106875 6.71792969 0.96875 5.89648438 C0.6393854 3.9320598 0.31883687 1.96616073 0 0 Z " fill="#5780A6" transform="translate(282,115)"/>
<path d="M0 0 C4.875 1.75 4.875 1.75 6 4 C-0.4 8.06153846 -0.4 8.06153846 -3.4375 7.75 C-3.953125 7.5025 -4.46875 7.255 -5 7 C-1.125 1.125 -1.125 1.125 0 0 Z " fill="#084379" transform="translate(252,235)"/>
<path d="M0 0 C1.2065625 0.0309375 1.2065625 0.0309375 2.4375 0.0625 C3.0625 2.4375 3.0625 2.4375 3.4375 5.0625 C2.7775 5.7225 2.1175 6.3825 1.4375 7.0625 C-0.6875 6.6875 -0.6875 6.6875 -2.5625 6.0625 C-2.94468767 4.40635343 -3.27645102 2.73792976 -3.5625 1.0625 C-2.5625 0.0625 -2.5625 0.0625 0 0 Z " fill="#E6E7ED" transform="translate(182.5625,256.9375)"/>
<path d="M0 0 C0.82242188 0.00451172 1.64484375 0.00902344 2.4921875 0.01367188 C4.49482396 0.02531511 6.49742227 0.04324444 8.5 0.0625 C8.5 0.3925 8.5 0.7225 8.5 1.0625 C4.21 1.0625 -0.08 1.0625 -4.5 1.0625 C-4.5 1.7225 -4.5 2.3825 -4.5 3.0625 C-5.91623216 3.11697047 -7.33308191 3.15550508 -8.75 3.1875 C-9.53890625 3.21070312 -10.3278125 3.23390625 -11.140625 3.2578125 C-13.70731941 3.0453378 -15.2916067 2.34904105 -17.5 1.0625 C-11.61599345 0.20554033 -5.94090708 -0.06289234 0 0 Z " fill="#8A6D25" transform="translate(171.5,60.9375)"/>
<path d="M0 0 C3.96 0 7.92 0 12 0 C11.67 0.99 11.34 1.98 11 3 C3.375 4.25 3.375 4.25 0 2 C0 1.34 0 0.68 0 0 Z " fill="#373F6D" transform="translate(237,278)"/>
<path d="M0 0 C0.680625 -0.02578125 1.36125 -0.0515625 2.0625 -0.078125 C4 0.25 4 0.25 7 3.25 C1.39 3.25 -4.22 3.25 -10 3.25 C-6.568942 0.962628 -4.05103694 0.09206902 0 0 Z " fill="#F4BF1F" transform="translate(129,239.75)"/>
<path d="M0 0 C3.96 0 7.92 0 12 0 C12 0.99 12 1.98 12 3 C8.04 3 4.08 3 0 3 C0 2.01 0 1.02 0 0 Z " fill="#2D5E8D" transform="translate(93,233)"/>
<path d="M0 0 C-5.49979731 4.27762013 -8.80775799 6.42307306 -16 6 C-11.34887439 2.09305449 -6.17401031 -0.56127366 0 0 Z " fill="#567AA0" transform="translate(270,237)"/>
<path d="M0 0 C2.31 0 4.62 0 7 0 C6.67 1.65 6.34 3.3 6 5 C4.02 5 2.04 5 0 5 C0 3.35 0 1.7 0 0 Z " fill="#0F184F" transform="translate(59,265)"/>
<path d="M0 0 C2.03515625 0.3984375 2.03515625 0.3984375 6.03515625 3.3984375 C1.08515625 3.3984375 -3.86484375 3.3984375 -8.96484375 3.3984375 C-5.62553747 0.05913122 -4.54452496 0.05253786 0 0 Z " fill="#E8BE43" transform="translate(70.96484375,239.6015625)"/>
<path d="M0 0 C1.32 0.99 2.64 1.98 4 3 C-0.95 3 -5.9 3 -11 3 C-6.5672804 -0.3245397 -5.32739604 -0.57079243 0 0 Z " fill="#EBC863" transform="translate(276,240)"/>
<path d="M0 0 C4.95 0.99 9.9 1.98 15 3 C15 3.33 15 3.66 15 4 C9.39 3.67 3.78 3.34 -2 3 C-1.34 2.67 -0.68 2.34 0 2 C0 1.34 0 0.68 0 0 Z " fill="#4685AF" transform="translate(201,120)"/>
<path d="M0 0 C-0.33 4.29 -0.66 8.58 -1 13 C-1.99 13.33 -2.98 13.66 -4 14 C-3.88655624 11.8535247 -3.75893655 9.70779408 -3.625 7.5625 C-3.52058594 5.77005859 -3.52058594 5.77005859 -3.4140625 3.94140625 C-3.27742188 2.97074219 -3.14078125 2.00007813 -3 1 C-1 0 -1 0 0 0 Z " fill="#EEB714" transform="translate(52,119)"/>
<path d="M0 0 C2.02350324 3.03525486 2.32124018 4.19426202 2.625 7.6875 C2.69976562 8.49574219 2.77453125 9.30398437 2.8515625 10.13671875 C2.90054687 10.75160156 2.94953125 11.36648437 3 12 C2.01 11.67 1.02 11.34 0 11 C-0.19491452 9.54263913 -0.38069358 8.08405407 -0.5625 6.625 C-0.66691406 5.81289062 -0.77132813 5.00078125 -0.87890625 4.1640625 C-1 2 -1 2 0 0 Z " fill="#DFBD59" transform="translate(295,127)"/>
<path d="M0 0 C0.556875 0.226875 1.11375 0.45375 1.6875 0.6875 C0.6975 1.0175 -0.2925 1.3475 -1.3125 1.6875 C-1.725 2.1825 -2.1375 2.6775 -2.5625 3.1875 C-5.20205365 5.44997456 -7.93520673 5.36888743 -11.3125 5.6875 C-3.40789474 -0.46052632 -3.40789474 -0.46052632 0 0 Z " fill="#DDBC5D" transform="translate(209.3125,237.3125)"/>
<path d="M0 0 C4.4571874 0.26218749 6.51522698 0.57711289 9.9375 3.5625 C10.618125 4.366875 11.29875 5.17125 12 6 C8.98782888 5.35550393 6.48344164 4.34977818 3.75 2.9375 C3.04359375 2.57527344 2.3371875 2.21304688 1.609375 1.83984375 C1.07828125 1.56269531 0.5471875 1.28554687 0 1 C0 0.67 0 0.34 0 0 Z " fill="#547AA0" transform="translate(72,237)"/>
<path d="M0 0 C2.97 0.495 2.97 0.495 6 1 C6 1.99 6 2.98 6 4 C4.35 4 2.7 4 1 4 C0.67 2.68 0.34 1.36 0 0 Z " fill="#172055" transform="translate(280,278)"/>
<path d="M0 0 C1.98 0 3.96 0 6 0 C6 0.99 6 1.98 6 3 C3.69 3 1.38 3 -1 3 C-0.67 2.01 -0.34 1.02 0 0 Z " fill="#FED352" transform="translate(208,238)"/>
<path d="M0 0 C0 0.99 0 1.98 0 3 C-2.31 3.66 -4.62 4.32 -7 5 C-6.6875 3.0625 -6.6875 3.0625 -6 1 C-3 0 -3 0 0 0 Z " fill="#A7821D" transform="translate(138,67)"/>
<path d="M0 0 C0.99 0.33 1.98 0.66 3 1 C2.21654285 2.17219543 1.42297164 3.33763668 0.625 4.5 C0.18414062 5.1496875 -0.25671875 5.799375 -0.7109375 6.46875 C-1.13632813 6.9740625 -1.56171875 7.479375 -2 8 C-2.66 8 -3.32 8 -4 8 C-2.87548273 5.0280615 -1.77706209 2.66559313 0 0 Z " fill="#0A1951" transform="translate(249,235)"/>
<path d="M0 0 C1.9375 0.6875 1.9375 0.6875 4 2 C4.75 4.625 4.75 4.625 5 7 C4.01 6.34 3.02 5.68 2 5 C1.34 5.66 0.68 6.32 0 7 C0 4.69 0 2.38 0 0 Z " fill="#CDA42D" transform="translate(290,119)"/>
<path d="M0 0 C1.32 0 2.64 0 4 0 C4 0.66 4 1.32 4 2 C4.99 2 5.98 2 7 2 C7 2.66 7 3.32 7 4 C4.69 3.67 2.38 3.34 0 3 C0 2.01 0 1.02 0 0 Z " fill="#242C5E" transform="translate(283,271)"/>
<path d="M0 0 C3.93673644 1.31224548 6.22719294 2.91910327 9 6 C5.59687262 4.94124926 2.98646769 3.99097846 0 2 C0 1.34 0 0.68 0 0 Z " fill="#EBB412" transform="translate(232,79)"/>
<path d="M0 0 C2.4375 0.375 2.4375 0.375 5 1 C5.33 1.66 5.66 2.32 6 3 C3.69 3 1.38 3 -1 3 C-0.67 2.01 -0.34 1.02 0 0 Z " fill="#242C5E" transform="translate(238,271)"/>
<path d="M0 0 C0.66 0 1.32 0 2 0 C1.34 3.3 0.68 6.6 0 10 C-0.33 10 -0.66 10 -1 10 C-1.125 2.25 -1.125 2.25 0 0 Z " fill="#F1B70E" transform="translate(291,178)"/>
</svg>
