<?xml version="1.0" encoding="UTF-8"?>
<svg version="1.1" xmlns="http://www.w3.org/2000/svg" width="1024" height="1024">
<path d="M0 0 C337.92 0 675.84 0 1024 0 C1024 337.92 1024 675.84 1024 1024 C686.08 1024 348.16 1024 0 1024 C0 686.08 0 348.16 0 0 Z " fill="#FFC107" transform="translate(0,0)"/>
<path d="M0 0 C77.88 0 155.76 0 236 0 C236 205.92 236 411.84 236 624 C185.84 624 135.68 624 84 624 C84 462.96 84 301.92 84 136 C56.28 136 28.56 136 0 136 C0 91.12 0 46.24 0 0 Z " fill="#FFFEFE" transform="translate(375,186)"/>
</svg>
