<?xml version="1.0" encoding="UTF-8"?>
<svg version="1.1" xmlns="http://www.w3.org/2000/svg" width="1024" height="1024">
<path d="M0 0 C337.92 0 675.84 0 1024 0 C1024 337.92 1024 675.84 1024 1024 C686.08 1024 348.16 1024 0 1024 C0 686.08 0 348.16 0 0 Z " fill="#FFC107" transform="translate(0,0)"/>
<path d="M0 0 C1.15329803 0.00223572 1.15329803 0.00223572 2.32989502 0.0045166 C17.95795828 0.05831925 33.31714804 1.20033322 48.8125 3.3125 C49.8034668 3.44640137 50.79443359 3.58030273 51.81542969 3.71826172 C90.82783557 9.26552729 126.30941849 25.12972472 154.8125 52.3125 C155.65554688 53.09109375 156.49859375 53.8696875 157.3671875 54.671875 C190.87558794 86.57444155 205.86441549 134.42787706 207.05859375 179.6640625 C207.26747783 193.97496392 206.76555085 208.13219758 204.8125 222.3125 C204.68311035 223.31410156 204.5537207 224.31570313 204.42041016 225.34765625 C199.26523387 263.69983782 184.35463433 301.21502804 162.8125 333.3125 C162.34134766 334.01729492 161.87019531 334.72208984 161.38476562 335.44824219 C154.11749061 346.22302042 146.15080628 356.3523502 137.8125 366.3125 C137.31830566 366.90579102 136.82411133 367.49908203 136.31494141 368.11035156 C130.95204211 374.54294453 125.48041556 380.86348446 119.84765625 387.0625 C118.03872457 389.06239375 116.26358199 391.08519432 114.5 393.125 C105.10978105 403.86903222 95.20475096 414.08225953 85.10205078 424.15332031 C83.04732492 426.20263511 80.99806897 428.25731263 78.94921875 430.3125 C77.61750835 431.64355025 76.28548812 432.97429061 74.953125 434.3046875 C74.35397278 434.90586395 73.75482056 435.50704041 73.13751221 436.12643433 C69.44026255 439.80363549 65.62351893 443.29178266 61.67042542 446.69268799 C58.52792598 449.43244185 55.52537561 452.31993507 52.5 455.1875 C47.27648498 460.10417008 41.9602081 464.75945705 36.35546875 469.23828125 C33.76238653 471.35337596 31.284651 473.55768096 28.8125 475.8125 C24.15736636 480.04443967 19.34569303 484.04059188 14.44921875 487.98925781 C12.58660619 489.49512894 10.73056458 491.00889078 8.875 492.5234375 C7.47921329 493.66151551 6.08338011 494.79953654 4.6875 495.9375 C3.72046143 496.72688965 3.72046143 496.72688965 2.73388672 497.53222656 C-2.18691135 501.53512329 -7.17697783 505.4154272 -12.1875 509.3125 C63.0525 509.6425 138.2925 509.9725 215.8125 510.3125 C215.8125 549.5825 215.8125 588.8525 215.8125 629.3125 C74.5725 629.3125 -66.6675 629.3125 -212.1875 629.3125 C-212.1875 593.3425 -212.1875 557.3725 -212.1875 520.3125 C-198.70601852 508.90509259 -198.70601852 508.90509259 -191.84375 503.46875 C-187.97246043 500.32617376 -184.207731 497.06349698 -180.43212891 493.80712891 C-176.00234593 489.99282731 -171.50290433 486.27493553 -166.96484375 482.58984375 C-163.84353733 480.03046028 -160.76296576 477.42660084 -157.6875 474.8125 C-153.74099519 471.45802873 -149.77107928 468.14028171 -145.75 464.875 C-139.73616823 459.97677761 -133.86116596 454.92336754 -127.98583984 449.86083984 C-125.05747797 447.33957037 -122.1221201 444.82647889 -119.1875 442.3125 C-118.61314209 441.81991699 -118.03878418 441.32733398 -117.44702148 440.81982422 C-114.48360787 438.278333 -111.51754236 435.74004147 -108.546875 433.20703125 C-102.43146817 427.98794717 -96.36933454 422.7266398 -90.4140625 417.32421875 C-88.35645609 415.46515331 -86.27903237 413.63321642 -84.1875 411.8125 C-79.47047123 407.70167573 -74.83180291 403.5050774 -70.1875 399.3125 C-68.52109149 397.81221321 -66.85442647 396.31221128 -65.1875 394.8125 C-64.3625 394.06871094 -63.5375 393.32492187 -62.6875 392.55859375 C-61.02600194 391.06584159 -59.35934722 389.5788084 -57.6875 388.09765625 C-52.458067 383.44836347 -47.47148993 378.6303135 -42.55859375 373.6484375 C-40.47881639 371.59949703 -38.35510195 369.69373452 -36.125 367.8125 C-32.16533837 364.42762796 -28.78639728 360.63127359 -25.34765625 356.7265625 C-23.47775301 354.63686954 -21.56445179 352.64914403 -19.5625 350.6875 C-15.89247738 347.06775166 -12.53448972 343.23044679 -9.1875 339.3125 C-8.38570312 338.38824219 -7.58390625 337.46398437 -6.7578125 336.51171875 C0.81344598 327.73269759 7.8830179 318.60366273 14.8125 309.3125 C15.37291992 308.56242676 15.93333984 307.81235352 16.51074219 307.03955078 C40.930231 274.21139824 59.03317772 239.21647294 59.125 197.5 C59.13047852 196.2013501 59.13595703 194.9027002 59.14160156 193.56469727 C58.99742067 174.04434415 54.81474849 154.76902327 41.125 140 C34.0009101 133.37293963 25.21547927 128.71398032 15.8125 126.3125 C15.11640625 126.10882813 14.4203125 125.90515625 13.703125 125.6953125 C-4.113983 121.21031635 -23.55161533 124.21381402 -39.29296875 133.4140625 C-56.81206446 144.90431961 -65.49402117 163.61945229 -70.0625 183.4375 C-70.26584961 184.28747559 -70.46919922 185.13745117 -70.67871094 186.01318359 C-72.88538293 196.51686581 -72.68594296 206.27824504 -73.1875 217.3125 C-119.7175 217.3125 -166.2475 217.3125 -214.1875 217.3125 C-214.1875 208.14911823 -213.90321526 199.337008 -213.0625 190.25 C-212.99847992 189.557854 -212.93445984 188.86570801 -212.86849976 188.15258789 C-207.81364433 135.17315932 -185.50305711 83.94296195 -144.9296875 48.5546875 C-113.16394422 22.58098857 -74.82158108 7.43709865 -34.1875 2.3125 C-32.94911377 2.14403564 -31.71072754 1.97557129 -30.43481445 1.80200195 C-20.26105039 0.46312869 -10.25640601 -0.04987407 0 0 Z " fill="#FFFEFE" transform="translate(514.1875,171.6875)"/>
</svg>
