<?xml version="1.0" encoding="UTF-8"?>
<svg version="1.1" xmlns="http://www.w3.org/2000/svg" width="1024" height="1024">
<path d="M0 0 C337.92 0 675.84 0 1024 0 C1024 337.92 1024 675.84 1024 1024 C686.08 1024 348.16 1024 0 1024 C0 686.08 0 348.16 0 0 Z " fill="#FFC107" transform="translate(0,0)"/>
<path d="M0 0 C54.12 0 108.24 0 164 0 C164 124.74 164 249.48 164 378 C187.1 378 210.2 378 234 378 C234 419.91 234 461.82 234 505 C210.9 505 187.8 505 164 505 C164 541.63 164 578.26 164 616 C115.82 616 67.64 616 18 616 C18 579.04 18 542.08 18 504 C-76.71 504 -171.42 504 -269 504 C-269 385.24795487 -269 385.24795487 -241.73388672 346.46777344 C-238.81675559 342.31593432 -235.90887754 338.15762377 -233 334 C-231.83337702 332.33330275 -230.66671037 330.66663607 -229.5 329 C-228.63375 327.7625 -228.63375 327.7625 -227.75 326.5 C-208.5 299 -208.5 299 -206.75048828 296.50073242 C-205.58215033 294.83165493 -204.41385616 293.16254678 -203.24560547 291.4934082 C-200.35486511 287.36337662 -197.46340146 283.23385554 -194.5703125 279.10546875 C-188.36438924 270.24792374 -182.17316719 261.38041071 -176 252.5 C-169.25927821 242.80313354 -162.4951861 233.12290817 -155.71777344 223.45166016 C-152.8103791 219.30213572 -149.90531999 215.15097694 -147 211 C-145.83334425 209.33332569 -144.66667759 207.66665902 -143.5 206 C-142.9225 205.175 -142.345 204.35 -141.75 203.5 C-136.5 196 -136.5 196 -134.75048828 193.50073242 C-133.58215033 191.83165493 -132.41385616 190.16254678 -131.24560547 188.4934082 C-128.35486511 184.36337662 -125.46340146 180.23385554 -122.5703125 176.10546875 C-116.36438924 167.24792374 -110.17316719 158.38041071 -104 149.5 C-97.25927821 139.80313354 -90.4951861 130.12290817 -83.71777344 120.45166016 C-80.8103791 116.30213572 -77.90531999 112.15097694 -75 108 C-73.83334425 106.33332569 -72.66667759 104.66665902 -71.5 103 C-70.9225 102.175 -70.345 101.35 -69.75 100.5 C-64.5 93 -64.5 93 -62.75048828 90.50073242 C-61.58215033 88.83165493 -60.41385616 87.16254678 -59.24560547 85.4934082 C-56.35486511 81.36337662 -53.46340146 77.23385554 -50.5703125 73.10546875 C-43.68633514 63.2801556 -36.82377487 53.44025193 -29.97680664 43.58911133 C-25.51776231 37.17568427 -21.04505578 30.77201249 -16.5625 24.375 C-12.59691394 18.71338044 -8.63148819 13.05169591 -4.6875 7.375 C-3.99011719 6.37210938 -3.29273438 5.36921875 -2.57421875 4.3359375 C-1.00168486 2.11086516 -1.00168486 2.11086516 0 0 Z " fill="#FFFEFE" transform="translate(534,194)"/>
<path d="M0 0 C0.33 0 0.66 0 1 0 C1 71.28 1 142.56 1 216 C-46.19 216 -93.38 216 -142 216 C-140.55508481 212.38771203 -139.47384509 209.97096811 -137.36474609 206.88183594 C-136.83529388 206.10100647 -136.30584167 205.320177 -135.76034546 204.51568604 C-135.18716583 203.68035339 -134.61398621 202.84502075 -134.0234375 201.984375 C-133.42632965 201.10537537 -132.8292218 200.22637573 -132.21401978 199.32073975 C-130.9355804 197.43902561 -129.65519345 195.55863347 -128.37304688 193.67944336 C-125.01601128 188.75751397 -121.67491242 183.82481855 -118.3359375 178.890625 C-117.68236267 177.92495605 -117.02878784 176.95928711 -116.35540771 175.96435547 C-111.79303284 169.20916722 -107.33744329 162.40221922 -103 155.5 C-94.45623368 141.92091121 -85.39555317 128.68683583 -76.375 115.421875 C-71.13256551 107.70061298 -65.91670418 99.98362166 -61.0234375 92.03515625 C-54.24167927 81.01961035 -46.86909044 70.3932924 -39.59521484 59.69970703 C-33.0562198 50.07898113 -26.56834113 40.4539543 -20.45899963 30.5534668 C-16.45872045 24.08123612 -12.22746043 17.78377791 -7.9375 11.5 C-7.17234205 10.368614 -6.40736793 9.23710365 -5.64257812 8.10546875 C-4.92392578 7.04972656 -4.20527344 5.99398438 -3.46484375 4.90625 C-2.821521 3.96072266 -2.17819824 3.01519531 -1.51538086 2.04101562 C-1.01530518 1.36748047 -0.51522949 0.69394531 0 0 Z " fill="#FFC107" transform="translate(561,356)"/>
</svg>
