<?xml version="1.0" encoding="UTF-8"?>
<svg version="1.1" xmlns="http://www.w3.org/2000/svg" width="1024" height="1024">
<path d="M0 0 C337.92 0 675.84 0 1024 0 C1024 337.92 1024 675.84 1024 1024 C686.08 1024 348.16 1024 0 1024 C0 686.08 0 348.16 0 0 Z " fill="#FFC107" transform="translate(0,0)"/>
<path d="M0 0 C1.71011261 -0.00312698 1.71011261 -0.00312698 3.45477295 -0.00631714 C17.02768379 -0.00350721 30.30266995 0.51436314 43.75 2.375 C45.31790283 2.56980957 45.31790283 2.56980957 46.91748047 2.76855469 C85.17006111 7.65524406 124.06041057 22.69869944 152.51953125 49.30078125 C154.56160319 51.19980087 156.66451582 52.97337655 158.8125 54.75 C163.77266369 59.09263327 167.76085464 64.14737212 171.75 69.375 C172.83087891 70.79039062 172.83087891 70.79039062 173.93359375 72.234375 C200.46443752 108.74384272 208.58584781 153.39605936 202.67382812 197.68896484 C196.60264526 235.9020626 176.63955646 267.62745544 145.69921875 290.64453125 C120.96113714 308.375 120.96113714 308.375 109.75 308.375 C109.94788694 310.33071064 109.94788694 310.33071064 110.75 312.375 C112.48130016 313.53201466 112.48130016 313.53201466 114.6953125 314.234375 C115.92882446 314.69444946 115.92882446 314.69444946 117.18725586 315.16381836 C118.07421143 315.4810083 118.96116699 315.79819824 119.875 316.125 C155.10173952 329.49054079 184.9882075 354.89855569 201.0078125 389.4140625 C211.13243992 412.1133653 215.14154421 435.11455395 215.01074219 459.90405273 C215.00001991 462.30803717 215.01071942 464.71127222 215.0234375 467.11523438 C215.03734432 481.12341731 214.40174977 495.403948 210.5 508.9375 C210.28384033 509.71649658 210.06768066 510.49549316 209.8449707 511.2980957 C205.84591204 525.38818366 200.71069607 538.48430623 193.75 551.375 C193.18410156 552.43460938 192.61820313 553.49421875 192.03515625 554.5859375 C169.65435227 594.71340252 128.14452389 621.47373408 84.77734375 634.06640625 C59.84985269 640.81707579 34.50336939 643.60129117 8.75 643.625 C7.97841553 643.62600708 7.20683105 643.62701416 6.41186523 643.62805176 C-15.54793922 643.60892497 -37.45822592 641.92978965 -58.88867188 636.92089844 C-61.37307343 636.34654754 -63.86460022 635.81640562 -66.359375 635.2890625 C-97.30804973 628.56422019 -126.56864639 615.33785954 -151.25 595.375 C-152.07661133 594.70863525 -152.07661133 594.70863525 -152.91992188 594.02880859 C-191.79558951 562.44503737 -211.83435329 516.05925704 -217.4375 466.9375 C-217.52153076 466.23568604 -217.60556152 465.53387207 -217.69213867 464.81079102 C-218.54173702 456.6022932 -218.25 448.75464388 -218.25 440.375 C-171.39 440.375 -124.53 440.375 -76.25 440.375 C-75.92 445.655 -75.59 450.935 -75.25 456.375 C-72.69528509 473.81056842 -65.29825022 490.2814998 -52.25 502.375 C-51.321875 503.303125 -50.39375 504.23125 -49.4375 505.1875 C-30.8115255 520.72252615 -6.36319176 521.89988811 16.75 520.375 C23.84966153 519.58090956 30.37408745 518.23742814 36.875 515.25 C37.55240234 514.94360596 38.22980469 514.63721191 38.92773438 514.3215332 C53.2835771 507.55245912 62.75668341 495.89726713 68.75 481.375 C69.16507813 480.37082031 69.58015625 479.36664062 70.0078125 478.33203125 C76.86508346 457.88010072 74.74261927 432.36317438 65.5625 413 C56.85855046 396.72176245 43.33571451 388.87212429 26.75 382.375 C25.90953125 382.045 25.0690625 381.715 24.203125 381.375 C-2.22564491 372.37797194 -36.69416949 374.91874107 -62.25 374.375 C-62.25 335.105 -62.25 295.835 -62.25 255.375 C-47.73 255.045 -33.21 254.715 -18.25 254.375 C4.98388167 251.83855004 34.24576957 247.30215311 50.0390625 227.84375 C58.95321798 214.98131561 61.31590793 201.35256685 61.1875 185.9375 C61.17992676 184.66213379 61.17235352 183.38676758 61.16455078 182.07275391 C61.00926617 173.22606484 60.41803415 165.53380494 56.75 157.375 C56.32589844 156.41335938 55.90179687 155.45171875 55.46484375 154.4609375 C48.19408943 139.75740648 36.33922376 130.75958765 21.13671875 125.46484375 C1.75395309 119.94524823 -20.03765245 122.02200295 -37.68359375 131.3046875 C-43.38912342 134.50602407 -47.35256717 138.35447206 -51.125 143.6875 C-51.55627197 144.29634033 -51.98754395 144.90518066 -52.43188477 145.5324707 C-61.99900713 159.45749462 -65.68001031 173.67006704 -68.25 190.375 C-115.44 190.375 -162.63 190.375 -211.25 190.375 C-208.43065772 139.62683899 -195.52781304 93.48678575 -159.25 56.375 C-158.6003125 55.6634375 -157.950625 54.951875 -157.28125 54.21875 C-147.4643938 43.71299161 -134.67104609 35.45427829 -122.25 28.375 C-121.63108887 28.01841309 -121.01217773 27.66182617 -120.37451172 27.29443359 C-83.27583187 6.10437308 -42.11328943 0.03152247 0 0 Z " fill="#FFFEFE" transform="translate(508.25,171.625)"/>
</svg>
